<?xml version="1.0" encoding="utf-8"?>
<!-- Generator: Adobe Illustrator 21.0.0, SVG Export Plug-In . SVG Version: 6.00 Build 0)  -->
<svg version="1.1" id="图层_1" xmlns="http://www.w3.org/2000/svg" xmlns:xlink="http://www.w3.org/1999/xlink" x="0px" y="0px"
	 viewBox="0 0 2166 1080" style="enable-background:new 0 0 2166 1080;" xml:space="preserve">
<style type="text/css">
	.st0{fill:#E6E6E6;}
	.st1{fill:#999999;}
</style>
<path class="st0" d="M553.3,468.5c-0.5,0.1-0.9,0.3-1.3,0.3c-6,0.3-12.1,0.6-18.1,1c-7.3,0.4-14.6,0.9-21.9,1.3
	c-4.3,0.2-8.7,0.3-13,0.5c-0.3,0-0.7-0.7-0.5-0.9c0.2-0.4,0.4-0.8,0.6-1.1c0.5-0.7,0.9-1.4,1.4-2.1c8.6-13,17.3-25.9,25.9-38.9
	c0.3-0.5,0.7-0.9,0.9-1.4c0.7-1.4,1.9-1.9,3.4-2c6.7-0.3,13.5-0.6,20.2-1c7.3-0.4,14.6-0.9,21.9-1.3c3.4-0.2,6.7-0.2,10.1-0.3
	c0.3,0,0.7,0.6,0.5,1c-0.3,0.6-0.7,1.2-1,1.8c-9.1,13.7-18.2,27.3-27.3,41C554.4,467,553.8,467.8,553.3,468.5z M548.4,460.4
	c0.7-0.9,1.2-1.5,1.7-2.2c5.2-7.8,10.4-15.7,15.6-23.5c0.4-0.6,0.7-1.2,1.1-1.8c0.3-0.5-0.1-1.1-0.7-1.1c-1,0-2,0-2.9,0.1
	c-9.4,0.5-18.8,1.1-28.2,1.6c-0.3,0-0.6,0-0.8,0.1c-0.4,0.2-0.8,0.3-1.1,0.6c-0.4,0.4-0.7,0.9-1,1.3c-5.4,8.2-10.9,16.4-16.3,24.6
	c-0.2,0.3-0.5,0.7-0.6,1.1c-0.1,0.2,0.1,0.5,0.2,0.8c0.5,0,1.1,0.1,1.6,0.1C527.3,461.6,537.7,461,548.4,460.4z"/>
<path class="st0" d="M886.6,956.7c1-0.1,1.8,0.5,2.7,0.9c6.5,3.2,13.1,6.5,19.6,9.7c7.5,3.7,15.1,7.5,22.6,11.2c1,0.5,2,1,3,1.5
	c0.8,0.4,1.2,1.1,1.4,2c0.5,2.8,1.1,5.5,1.6,8.3c2.5,13.2,4.9,26.5,7.4,39.7c0.3,1.4,0.3,2.8,0.5,4.2c0,0.3-0.3,0.5-0.6,0.4
	c-0.5-0.2-1.1-0.4-1.6-0.6c-15-7.4-29.9-14.8-44.9-22.2c-0.4-0.2-0.7-0.4-1.1-0.6c-0.7-0.3-1.1-0.9-1.3-1.6
	c-0.2-0.8-0.4-1.6-0.5-2.5c-2.1-11.4-4.3-22.9-6.4-34.3c-0.9-4.8-1.8-9.7-2.7-14.5C886.2,957.7,886.1,957.2,886.6,956.7z
	 M927.9,986.4c-0.6-0.4-0.9-0.6-1.3-0.8c-8.8-4.4-17.6-8.7-26.4-13.1c-0.5-0.2-1-0.4-1.6-0.6c-0.3-0.1-0.8,0.3-0.8,0.7
	c0.1,1.1,0.2,2.2,0.4,3.3c1,5.7,2.1,11.3,3.2,17c0.6,3.5,1.3,6.9,2,10.4c0.2,1,0.8,1.7,1.7,2.2c9.1,4.5,18.1,9,27.2,13.4
	c0.4,0.2,0.8,0.3,1.2,0.4c0.2,0,0.4-0.3,0.5-0.5c0.1-0.2,0.1-0.6,0-0.8c-1.5-8-3-16-4.5-24C929.1,991.6,928.7,989.1,927.9,986.4z"/>
<path class="st0" d="M158.3,62.4c-0.2,1.2-0.4,2.5-0.6,3.7c-1,6.1-2,12.2-3,18.3c-1,6-1.9,11.9-2.9,17.9c-0.5,3.2-1.1,6.4-1.6,9.5
	c-0.1,0.6-0.9,0.9-1.3,0.6c-0.2-0.2-0.4-0.3-0.6-0.5c-0.6-0.6-1.2-1.2-1.8-1.8c-10.1-10.5-20.2-21-30.4-31.6c-0.7-0.7-1.3-1.4-2-2.1
	c-0.6-0.7-0.8-1.5-0.6-2.3c0.6-3.7,1.2-7.5,1.8-11.2c1.3-8,2.6-16.1,3.9-24.1c0.6-3.9,1.2-7.8,1.9-11.6c0.1-0.8,0.4-1.6,0.7-2.4
	c0.1-0.1,0.6-0.3,0.7-0.2c0.8,0.6,1.5,1.3,2.2,2c6.6,6.9,13.2,13.8,19.9,20.6c4.2,4.4,8.4,8.7,12.5,13.1
	C157.8,60.8,158.4,61.4,158.3,62.4z M144.3,95.3c0.7-1.1,0.8-2.3,1-3.6c1.1-6.5,2.1-13,3.2-19.5c0.4-2.2,0.7-4.4,1.1-6.7
	c0.1-0.9-0.1-1.7-0.7-2.3c-0.5-0.5-1-1-1.4-1.5c-5.8-6.1-11.7-12.1-17.5-18.2c-0.4-0.4-0.8-0.8-1.2-1.2c-0.2-0.2-0.5-0.3-0.7-0.5
	c-0.3-0.2-0.9,0-1,0.4c-1.5,8.9-2.9,17.7-4.4,26.6c-0.2,1-0.3,1.9-0.5,2.9c-0.1,0.7,0.1,1.4,0.6,1.9c0.6,0.6,1.1,1.2,1.7,1.8
	c5.6,5.9,11.3,11.7,16.9,17.6c0.7,0.7,1.4,1.4,2.1,2C143.7,95.2,144,95.2,144.3,95.3z"/>
<path class="st0" d="M516.8,245.3c11.3-0.1,23.9,8.9,23.9,24.3c0,13.8-10.8,24.4-24.4,24.3c-14.9-0.1-24.4-12.4-24.2-24.5
	C492.3,255.4,503.8,245,516.8,245.3z M499.7,269.6c-0.2,7.4,5.6,16.5,16.6,16.7c9.7,0.1,17-7.5,16.9-16.8
	c-0.1-11.3-9.6-16.9-17-16.7C507.3,253,499.6,260.4,499.7,269.6z"/>
<path class="st0" d="M462.6,41.9c11.6-0.3,22.2,9.4,22.3,22.1c0.1,10.9-8.3,22.2-22.1,22.3c-13.8,0.1-22.3-11.2-22.3-22.1
	C440.4,51.7,450.8,41.8,462.6,41.9z M477.9,64c0.1-8.1-6.6-15.2-15.2-15.2c-8.6,0-15.5,7.2-15.3,15.6c0.1,7.4,6.3,15.1,15.5,15
	C471.6,79.3,478.2,71.8,477.9,64z"/>
<path class="st0" d="M456.1,670.9c-0.1,0.4-0.1,0.7-0.3,0.9c-1.3,1.6-2.7,3.3-4,4.9c-0.4,0.4-1,0.4-1.5,0c-0.2-0.2-0.5-0.3-0.7-0.5
	c-7.6-7.4-10.9-16.4-10-27c1-11.9,9.9-24.5,24.4-28c9.7-2.3,18.7-0.6,26.8,5.2c0.2,0.2,0.4,0.3,0.7,0.5c0.5,0.4,0.6,1.1,0.3,1.5
	c-1.3,1.6-2.7,3.3-4,4.9c-0.3,0.4-1.1,0.5-1.5,0.2c-0.8-0.5-1.6-1.1-2.5-1.6c-2.7-1.5-5.6-2.5-8.7-2.9c-10.4-1.5-21.1,4.3-25.1,14.4
	c-3.5,8.8-2.3,17,3.6,24.5c0.4,0.6,0.9,1,1.4,1.6C455.2,669.9,455.7,670.4,456.1,670.9z"/>
<path class="st0" d="M70.2,750.7c-0.2,1.1-0.5,2.6-0.7,4.1c-1.7,9.5-3.3,19.1-5,28.6c-0.1,0.4-0.2,0.8-0.3,1.2
	c-0.1,0.3-0.8,0.4-1.1,0.2c-0.4-0.4-0.9-0.7-1.2-1.1c-7.3-7.8-14.6-15.5-22-23.3c-0.3-0.3-0.6-0.6-0.8-0.9c-0.5-0.6-0.6-1.2-0.5-2
	c0.5-2.9,1-5.8,1.5-8.7c1.4-8.2,2.8-16.3,4.2-24.5c0.1-0.4,0.2-0.8,0.5-1.1c0.1-0.2,0.5-0.2,0.7-0.2c0.4,0.2,0.7,0.4,1,0.7
	c7.5,8,15,15.9,22.6,23.9c0.2,0.2,0.4,0.4,0.6,0.6C70.1,748.9,70.4,749.6,70.2,750.7z M48.5,735.3c-0.2,0.9-0.6,1.8-0.7,2.8
	c-0.7,3.9-1.3,7.7-2,11.6c-0.3,1.9-0.6,3.9-1,5.8c-0.2,1.2,0.2,2.1,1,3c4.3,4.5,8.5,9,12.7,13.4c0.3,0.3,0.6,0.5,1,0.8
	c0.3,0.2,0.6,0.1,0.7-0.2c0.2-0.4,0.4-0.7,0.5-1.1c1.1-6.3,2.2-12.7,3.3-19c0.2-0.9-0.1-1.6-0.7-2.3c-1.9-2-3.8-4.1-5.8-6.1
	c-2.5-2.6-5-5.3-7.5-7.9C49.7,735.6,49.3,735.3,48.5,735.3z"/>
<path class="st0" d="M389.9,177.7c1.1-0.1,2.2-0.2,3.4-0.3c0.9-0.1,1.7,0.2,2.3,0.9c0.6,0.6,1.1,1.2,1.7,1.9
	c6.5,7.2,13,14.4,19.5,21.6c0.7,0.7,1.2,1.5,1.9,2.3c0.2,0.3-0.1,0.9-0.5,1c-1.4,0.2-2.8,0.4-4.2,0.6c-5.3,0.5-10.6,1-16,1.5
	c-4.8,0.4-9.5,0.8-14.3,1.2c-0.9,0.1-1.7-0.2-2.3-0.9c-0.4-0.5-0.9-1-1.4-1.6c-6.6-7.3-13.2-14.6-19.8-21.9
	c-0.7-0.7-1.2-1.5-1.8-2.3c-0.2-0.3,0.1-1,0.4-1c0.1,0,0.3-0.1,0.4-0.1c3.8-0.3,7.6-0.7,11.3-1c4.6-0.4,9.2-0.9,13.9-1.3
	C386.2,178,388,177.8,389.9,177.7C389.9,177.7,389.9,177.7,389.9,177.7z M384.4,202.2c1.5,0,2.7,0.1,3.8,0
	c5.9-0.5,11.8-1.1,17.6-1.7c0.5,0,1-0.5,0.9-0.7c-0.1-0.3-0.1-0.6-0.3-0.8c-4.4-4.9-8.8-9.8-13.3-14.7c-0.6-0.7-1.4-0.9-2.3-0.9
	c-5.7,0.5-11.5,1-17.2,1.5c-1.1,0.1-2.2,0.3-3.3,0.5c0,0.2-0.1,0.4-0.1,0.5c0,0.1,0,0.3,0.1,0.4C375,191.6,379.7,196.8,384.4,202.2z
	"/>
<path class="st0" d="M576.8,637.2c0.6-0.4,1.2-0.9,1.7-1.2c2.8-1.6,5.9-2.7,9.1-3.2c18-2.9,32.4,8.4,35.9,23.8
	c2.2,12.9-1.5,23.6-12,31.7c-0.3,0.3-0.7,0.5-1.1,0.6c-0.2,0.1-0.6,0-0.7-0.2c-0.8-1-1.5-2-2.2-3.1c-1.8-2.9-2.1-2.6,0.7-5
	c5.5-4.8,8.2-11,7.9-18.3c-0.5-11.4-9-19.5-18.4-21.3c-4.9-0.9-9.5-0.3-14,1.6c-0.8,0.3-1.5,0.7-2.3,1c-0.2,0.1-0.5-0.1-0.8-0.2
	c-0.1,0-0.2-0.2-0.3-0.3C579,641.2,577.7,639.4,576.8,637.2z"/>
<path class="st0" d="M217.6,982.1c-10.7,0-18.1-7.6-19.1-16.4c-0.2-1.4-0.3-2.8-0.7-4.1c-1.1-3.7-4.8-7-9.1-6.9
	c-1.4,0-2.8,0.1-4.2,0.2c-2.4,0.1-4.8,0-7.1-0.9c-7.2-2.7-11.4-7.8-12.6-15.4c-0.1-0.8-0.1-1.7,0-2.5c0.2-1.8,1.9-3.3,3.7-3.4
	c1.9-0.2,3.8,1,4.4,2.6c0.2,0.5,0.2,1.1,0.3,1.6c0.2,0.8,0.3,1.6,0.6,2.5c1.3,4.5,5.6,7,9.5,7c1.1,0,2.2-0.2,3.4-0.2
	c4-0.3,7.8,0.5,11.3,2.6c5.1,3.2,7.9,7.8,8.8,13.7c0.1,0.8,0.1,1.7,0.2,2.5c0.7,3.7,2.6,6.5,6.2,7.9c0.9,0.4,1.9,0.6,2.8,0.7
	c1.1,0.1,2.2,0,3.4,0c1.9,0,3.2,1,3.9,2.7c1,2.2-0.4,5.2-2.8,5.6C219.4,982,218.1,982,217.6,982.1z"/>
<path class="st0" d="M931.3,490.4c0.4,0.3,0.8,0.6,1.2,1c9.2,9.1,18.3,18.2,27.5,27.3c0.4,0.4,0.8,0.8,1.1,1.3
	c0.2,0.4,0.3,0.8,0,1.2c-1.6,1.6-3.1,3.2-4.8,4.7c-0.2,0.2-0.9,0.1-1.1-0.1c-1-0.8-1.9-1.7-2.8-2.6c-6.2-6.1-12.4-12.3-18.5-18.4
	c-0.7-0.7-1.4-1.4-2.1-2c-0.2-0.2-0.9-0.3-1.2,0c-0.8,0.8-1.7,1.5-2.5,2.3c-6.1,6.2-12.3,12.4-18.4,18.5c-0.8,0.8-1.6,1.6-2.4,2.3
	c-0.4,0.3-1.1,0.3-1.5-0.1c-1.5-1.5-3-3-4.5-4.5c-0.2-0.2-0.3-0.5-0.4-0.7c2.2-2.7,10.8-11.5,27.7-28.2c0.7-0.7,1.5-1.3,2.2-1.9
	C930.9,490.5,931.1,490.5,931.3,490.4z"/>
<path class="st0" d="M882.8,781.3c0.9-1.3,2.2-2.4,3.4-3.6c0.6-0.6,1.2-1.1,1.8-1.6c1.3,0.4,2,1.3,2.7,2.1
	c5.9,5.8,11.8,11.7,17.7,17.5c0.9,0.9,1.8,1.8,2.7,2.6c0.7,0.7,1.4,0.7,2.2-0.1c0.9-0.9,1.8-1.8,2.7-2.7c5.6-5.7,11.3-11.4,16.9-17
	c0.8-0.8,1.6-1.6,2.5-2.3c0.3-0.3,0.8-0.3,1.2,0c1.8,1.6,3.6,3.1,5,5.2c-0.5,0.6-0.9,1.2-1.4,1.6c-8.6,8.7-17.2,17.4-25.8,26
	c-0.5,0.5-1,1-1.6,1.4c-0.3,0.2-0.8,0.2-1.2-0.1c-0.5-0.5-1.1-0.9-1.6-1.4c-8.5-8.4-17-16.8-25.4-25.2
	C883.8,783.1,883,782.5,882.8,781.3z"/>
<path class="st0" d="M212,550.7c0.1,9.4-7.2,19.2-19.3,19.2c-10.1,0-19-7.7-19.1-19c-0.1-11.1,8.5-19.4,19.1-19.5
	C204.1,531.4,212,540.6,212,550.7z M206.1,550.6c-0.2-7.1-5.6-13.3-13.6-13.2c-7.4,0.2-13,5.8-12.9,13.3c0.1,7.8,6,13.2,13.1,13.2
	C201.4,563.9,206.1,556.8,206.1,550.6z"/>
<path class="st0" d="M925.9,674.3c-0.1,0.4-0.1,0.7-0.3,0.9c-1.1,1.3-2.2,2.6-3.3,3.8c-0.3,0.3-0.7,0.5-1.1,0.8
	c-0.4-0.3-0.9-0.6-1.3-1c-6.1-6.5-8.6-14.3-7.9-23.2c0.8-9.7,7.9-22,22.7-25.2c9-1.9,17.3,0.1,24.5,6c0.5,0.4,0.7,1.1,0.3,1.5
	c-1.3,1.6-2.6,3.3-4.3,4.6c-0.4-0.2-0.8-0.3-1.1-0.5c-0.8-0.5-1.6-1.1-2.4-1.6c-11.3-6.7-27.3-1.9-31.5,12.7
	c-1.9,6.6-0.6,12.8,3.4,18.4C924.3,672.4,925.2,673.3,925.9,674.3z"/>
<path class="st0" d="M243.7,835.1c0.9,1.1,1.6,2.1,2.4,3c4.3,5,9.8,7.6,16.3,7.5c8-0.2,14.3-3.8,18.2-10.9
	c2.9-5.2,3.3-10.6,1.6-16.3c-0.2-0.5-0.3-1.1-0.6-1.6c-1.1-2.4-0.6-2.6,1.2-3.7c0.8-0.5,1.7-1,2.6-1.4c1.3-0.7,1.9-0.4,2.6,1
	c7.3,15.6-0.9,35.2-19.4,39.6c-12.8,3.1-24.8-3.1-30.6-12.7c-0.4-0.6-0.4-1.2,0-1.5c0.7-0.5,1.4-0.9,2.1-1.3
	C241.3,836.3,242.5,835.8,243.7,835.1z"/>
<path class="st0" d="M73.3,250.2c2.5-0.1,5.1,0.5,7.5,1.7c0.9,0.4,1.7,0.9,2.7,1.3c3.2,1.2,6.3,0.9,9.1-1.2c1-0.8,1.8-1.8,2.4-2.9
	c0.5-1,1-2,1.7-2.9c5-7.7,14.7-9.7,22.2-5.8c0.5,0.3,1,0.6,1.4,0.9c1.2,0.9,1.7,2.8,1.2,4.2c-0.5,1.6-2.2,2.7-3.9,2.6
	c-0.6-0.1-1.1-0.2-1.6-0.4c-0.7-0.2-1.3-0.5-1.9-0.8c-3.9-1.7-8.5,0.2-10.7,3.5c-0.7,1.1-1.2,2.2-1.9,3.3c-1.8,3-4.3,5.2-7.4,6.6
	c-4.6,2.1-9.2,2-13.9,0.1c-1.2-0.5-2.3-1.1-3.4-1.6c-4.1-1.9-8.5-0.2-10.9,3c-0.6,0.8-1,1.7-1.6,2.5c-1,1.3-2.9,1.8-4.5,1.2
	c-1.6-0.6-2.6-2.3-2.3-4.1c0.1-0.7,0.3-1.4,0.6-2C60.9,253.9,66.8,250,73.3,250.2z"/>
<path class="st0" d="M513.3,795c-0.2-1.3-0.5-2.7-0.7-4.1c-0.7-5.9-1.3-11.7-2-17.6c-0.3-2.9-0.7-5.9-1-8.8
	c-0.1-0.9,0.2-1.7,0.9-2.3c0.3-0.3,0.6-0.6,0.9-0.9c6.7-6.4,13.4-12.8,20.1-19.2c0.5-0.5,1-1.1,1.9-0.6c0.2,1.6,0.6,3.2,0.8,4.9
	c0.7,5.9,1.3,11.7,2,17.6c0.3,2.2,0.6,4.5,0.8,6.7c0.3,2.9,0.2,2.7-1.9,4.7c-2.1,2-4.3,4.1-6.4,6.1c-4.2,4-8.3,8-12.5,11.9
	c-0.6,0.6-1.3,1.1-1.9,1.6C514,795.2,513.7,795.1,513.3,795z M531.6,771.8c0-1.3,0.1-2.3,0-3.3c-0.5-4.7-1.1-9.5-1.7-14.2
	c0-0.3-0.1-0.6-0.1-0.8c0-0.1-0.1-0.3-0.1-0.4c-0.2-0.8-0.9-1.1-1.5-0.6c-4,3.8-7.9,7.6-11.9,11.3c-0.2,0.2-0.4,0.4-0.6,0.6
	c-0.5,0.5-0.8,1.1-0.8,1.9c0,0.7,0.1,1.4,0.1,2.1c0.6,4.9,1.2,9.8,1.7,14.6c0,0.4,0.2,0.8,0.4,1.2c0.1,0.2,0.5,0.3,0.7,0.2
	c0.5-0.2,1-0.6,1.4-0.9c3.1-2.9,6.1-5.8,9.1-8.7C529.5,773.7,530.7,772.7,531.6,771.8z"/>
<path class="st0" d="M651.7,31.5c-0.7,1-1.2,1.6-1.8,2.3c-6.9,8.3-13.9,16.6-20.9,24.9c-0.5,0.5-0.9,1.1-1.4,1.6
	c-0.5,0.5-1.3,0.6-1.9,0.1c-2.6-2.2-5.2-4.3-7.8-6.5c-5.9-5-11.9-9.9-17.8-14.9c-0.9-0.7-1.7-1.5-2.5-2.3c-0.2-0.2-0.2-0.6-0.1-0.8
	c1.1-1.8,2.4-3.4,4-4.8c0.2-0.1,0.6-0.2,0.8-0.1c0.6,0.3,1.2,0.7,1.7,1.2c5.3,4.4,10.5,8.9,15.8,13.2c1.9,1.6,3.5,3.6,6,4.4
	c2-1.4,3.2-3.5,4.8-5.3c4.1-4.8,8.1-9.7,12.2-14.5c0.8-1,1.7-1.9,2.5-2.8c0.3-0.3,0.8-0.3,1.2-0.1C648.4,28.4,650,29.7,651.7,31.5z"
	/>
<path class="st0" d="M59.2,551c-0.1-5.1,1.6-9,4.8-12.3c0.7-0.7,1.5-1.3,2.1-2c3.2-3.3,3.4-7.8,0.7-11.5c-0.6-0.8-1.3-1.5-1.9-2.2
	c-5.9-7.4-4.4-17.1,2-22.7c0.8-0.7,1.6-1.1,2.6-1.1c2-0.1,3.4,1,3.9,3.1c0.2,0.9-0.1,1.7-0.5,2.4c-0.2,0.4-0.5,0.7-0.8,1
	c-0.5,0.5-1,1-1.4,1.5c-2.6,3.2-2.7,7.2-0.3,10.5c0.6,0.9,1.5,1.7,2.1,2.6c2.2,2.8,3.5,6,3.7,9.7c0.2,4.6-1.4,8.5-4.5,11.9
	c-0.8,0.8-1.6,1.5-2.4,2.3c-3.3,3.3-3.2,8.3-1,11.2c0.6,0.8,1.2,1.6,1.7,2.4c0.6,1,0.5,2.2,0,3.2c-1,1.9-3.8,3.1-6,0.9
	c-2.6-2.6-4.1-5.6-4.6-9.3C59.2,551.9,59.2,551.2,59.2,551z"/>
<path class="st0" d="M915.7,71.5c0.2,9.9-8.1,17.7-17.5,17.8c-8.1,0.1-17.6-5.9-17.8-17.5C880.4,61.6,888.3,54,898,54
	C909.6,53.9,915.9,63.5,915.7,71.5z M886,71.7c-0.2,5.2,3.9,12,12,12.1c6.7,0.1,12.1-4.9,12.2-12c0.1-7.4-6-12.3-12.3-12.3
	C891.5,59.5,885.8,65.2,886,71.7z"/>
<path class="st0" d="M169.2,711.5c0.2-4.1,1.3-7.4,3.5-10.2c0.6-0.8,1.3-1.5,1.9-2.2c2.8-3.7,2.5-8.1-0.7-11.5
	c-0.8-0.8-1.7-1.5-2.4-2.3c-5.6-5.8-5.8-15.4-0.3-21.4c0.3-0.3,0.6-0.6,0.9-0.9c1.1-0.9,2.3-1.2,3.5-0.7c1.4,0.5,2.3,1.7,2.4,3.2
	c0,0.7-0.2,1.4-0.5,2c-0.4,0.7-1,1.3-1.5,2c-2.6,3.8-1.9,8.1,1.2,11.1c0.7,0.7,1.5,1.3,2.1,2c5.5,5.6,6.1,14.5,1.2,20.8
	c-0.7,0.9-1.5,1.7-2.1,2.6c-2.4,3.3-2.4,7.3,0.2,10.5c0.5,0.7,1.2,1.2,1.7,1.8c1.3,1.5,1.2,3.7-0.1,5c-1.4,1.4-3.3,1.5-4.9,0.2
	c-2.6-2.1-4.4-4.7-5.3-7.9C169.5,714.1,169.4,712.6,169.2,711.5z"/>
<path class="st0" d="M643.8,172.8c-1.2-0.2-2.5-0.3-3.7-0.6c-1-0.2-1.9-0.5-2.8-0.8c-4.6-1.3-8.9,1.4-10.2,5.2
	c-0.3,0.9-0.6,1.9-1,2.8c-1.7,4.1-4.5,7.1-8.6,8.8c-3.8,1.6-7.6,1.7-11.5,0.3c-0.3-0.1-0.5-0.3-0.7-0.4c-1.4-0.8-2.1-2.5-1.6-4
	c0.5-1.6,2.2-2.9,3.9-2.6c1,0.2,1.9,0.5,2.9,0.6c4.5,0.6,7.7-2.1,9-5.4c0.4-1,0.7-2.1,1.1-3.2c2.9-6.9,9.9-10.5,16.7-9.4
	c1.1,0.2,2.2,0.5,3.3,0.7c1.1,0.2,2.2,0.5,3.3,0.5c3.2,0.1,5.6-1.4,7.2-4.2c0.5-0.8,0.8-1.8,1.2-2.7c0.9-1.8,2.7-2.5,4.6-1.8
	c1.4,0.5,2.5,2.4,2.2,3.7c-1.4,5.6-4.7,9.5-10.2,11.4C647.2,172.4,645.6,172.8,643.8,172.8z"/>
<path class="st0" d="M338.5,545.3c0.5,3.6,1.1,6.9,1.5,10.2c0.8,5.7,1.5,11.4,2.3,17.1c0.1,0.4,0,0.8-0.1,1.2
	c-0.1,0.2-0.4,0.4-0.6,0.4c-0.4-0.1-0.8-0.3-1.1-0.5c-7.4-4.1-14.7-8.1-22.1-12.2c-0.4-0.2-0.8-0.4-1.1-0.7
	c-0.4-0.4-0.7-0.9-0.9-1.3c-0.2-0.4-0.2-0.8-0.3-1.2c-1.2-8.3-2.3-16.7-3.4-25c-0.1-0.4,0-0.8,0-1.2c0-0.3,0.6-0.7,0.9-0.5
	c0.8,0.4,1.5,0.7,2.3,1.1c6.6,3.7,13.3,7.3,19.9,11C336.6,544.1,337.4,544.6,338.5,545.3z M318.4,541.4c0.2,1.7,0.5,3.8,0.8,5.9
	c0.4,2.8,0.8,5.6,1.2,8.4c0.2,1.2,0.7,2.1,1.8,2.6c4.2,2.3,8.4,4.6,12.5,6.9c0.2,0.1,0.5,0.3,0.8,0.3c0.3,0,0.6,0,0.8-0.1
	c0.2-0.2,0.3-0.5,0.2-0.8c-0.7-4.9-1.4-9.7-2-14.6c-0.2-1.4-0.7-2.3-2-3c-4.1-2.2-8.1-4.5-12.2-6.7c-0.4-0.2-0.8-0.3-1.2-0.5
	c-0.3-0.1-0.8,0.3-0.8,0.7C318.4,540.8,318.4,540.9,318.4,541.4z"/>
<path class="st0" d="M757.5,508.3c8-0.2,16.3,6.4,16.2,16.4c-0.1,9.6-7.9,16.2-16.4,16.2c-9.4-0.1-16.3-7.8-16.2-16.4
	C741.2,515,749.1,508,757.5,508.3z M757.4,513.4c-6.1-0.2-11.2,5-11.2,11.2c0,5.6,4.5,11.2,11.3,11.2c6.2,0,11.2-4.9,11.2-11.2
	C768.6,517.8,763.1,513.2,757.4,513.4z"/>
<path class="st0" d="M225.3,174.2c0.3,0.9,0.7,1.7,0.9,2.5c2.2,7.1,4.5,14.2,6.7,21.3c0.2,0.8,0.4,1.6,0.5,2.5
	c0,0.1-0.4,0.5-0.6,0.5c-0.6,0-1.1-0.1-1.6-0.3c-7.5-2.6-15.1-5.3-22.6-8c-0.4-0.1-0.8-0.3-1.2-0.5c-0.3-0.2-0.6-0.6-0.9-0.9
	c-0.2-0.2-0.2-0.5-0.3-0.8c-2.5-8-5-16-7.6-24.1c-0.1-0.3-0.1-0.6,0-0.8c0.1-0.2,0.4-0.5,0.6-0.5c0.4,0,0.8,0,1.2,0.2
	c7.9,2.8,15.9,5.6,23.8,8.4C224.6,173.7,224.8,173.9,225.3,174.2z M210.7,188.5c4.1,1.6,8.3,3,12.5,4.5c0.8,0.3,1.6,0.5,2.4,0.7
	c0.5,0.1,1-0.5,0.8-1.1c-1.4-4.7-2.9-9.4-4.4-14.1c-0.2-0.7-0.7-1.2-1.4-1.5c-4.6-1.6-9.3-3.3-13.9-4.9c-0.5-0.2-1.1,0-1.1,0.3
	c0,0.3-0.2,0.6-0.1,0.8c1.5,4.7,2.9,9.4,4.4,14C210.2,187.6,210.4,188,210.7,188.5z"/>
<path class="st0" d="M354.5,1030.6c3.3-6.8,6.8-13.9,10.3-21.1c0.6-1.3,1.6-1.8,2.9-2.1c3-0.6,6.1-1.2,9.1-1.8
	c4.5-0.9,9.1-1.7,13.6-2.6c0.4-0.1,0.8-0.1,1.3-0.1c0.4,0,0.9,0.4,0.7,0.8c-0.2,0.5-0.3,1.1-0.6,1.6c-3.3,6.8-6.6,13.6-10,20.4
	c-0.1,0.3-0.2,0.5-0.4,0.8c-0.5,1-1.2,1.5-2.3,1.7c-4.4,0.8-8.8,1.7-13.2,2.5c-2.8,0.5-5.5,1.1-8.3,1.6c-1,0.2-1.9,0.3-2.9,0.4
	c-0.6,0.1-1-0.5-0.7-1.1C354.2,1031.3,354.3,1031.2,354.5,1030.6z M377.8,1023.7c0.3-0.5,0.6-0.8,0.8-1.2c1.9-3.9,3.8-7.8,5.7-11.7
	c0.2-0.4,0.3-0.8,0.5-1.2c0.1-0.3-0.3-0.8-0.7-0.8c-0.3,0-0.6,0-0.8,0c-4.6,0.9-9.1,1.7-13.7,2.6c-0.7,0.1-1.2,0.7-1.5,1.3
	c-2.1,4.3-4.2,8.6-6.3,12.9c-0.1,0.1,0,0.3-0.1,0.4c0,0.3,0.1,0.6,0.5,0.6c1.3-0.1,2.5-0.2,3.7-0.4c2.6-0.5,5.2-1,7.9-1.5
	C375.2,1024.4,376.6,1024.1,377.8,1023.7z"/>
<path class="st0" d="M762.3,723.6c3.3,1.4,9.9,5.1,25.2,14.1c0.7,0.4,1.4,0.9,2.1,1.4c0.1,0.1,0.1,0.2,0.2,0.5
	c-0.2,0.4-0.4,0.9-0.7,1.4c-4.6,8.1-9.2,16.1-13.8,24.2c-0.2,0.4-0.4,0.8-0.7,1c-0.3,0.2-0.8,0.4-1.1,0.3c-1.5-0.7-3-1.4-4.2-2.4
	c-0.3-1,0.2-1.5,0.5-2.1c3.3-5.7,6.6-11.5,9.8-17.2c0.5-1,1-2,1.5-2.9c-0.6-1.1-1.5-1.4-2.4-1.9c-5.7-3.3-11.5-6.6-17.2-9.8
	c-0.6-0.3-1.2-0.8-1.7-1.2c-0.2-0.2-0.3-0.6-0.2-0.8C760.3,726.5,761.2,725,762.3,723.6z"/>
<path class="st0" d="M977.7,352.6c-8.4,0.3-14.8-6.8-15-14.4c-0.2-7.8,5.8-15.1,14.7-15.2c8.4-0.1,15,6.6,15,14.9
	C992.4,346.1,985.6,352.7,977.7,352.6z M977.5,327.7c-5.8-0.1-10.3,4.7-10.2,10.1c0,6.1,5,10.2,10.2,10.2c5.5,0,10.2-4.3,10.2-10.2
	C987.7,332.2,983,327.6,977.5,327.7z"/>
<path class="st0" d="M391.6,425.3c-6.5,0.1-11.1-3.7-13-8.3c-0.4-1-0.7-2.1-1.1-3.2c-1-2.9-4.3-5.5-8.5-4.6c-1.5,0.4-3,0.8-4.5,0.9
	c-3.4,0.2-6.4-0.6-9.1-2.7c-2.6-2-4.1-4.6-4.9-7.7c-0.4-1.5,0.3-2.8,1.6-3.5c1.4-0.7,3.3-0.2,4,1.2c0.4,0.8,0.6,1.6,1,2.3
	c0.8,1.7,2.1,2.9,3.9,3.7c1.5,0.6,3,0.6,4.5,0.3c1.2-0.3,2.5-0.6,3.7-0.8c7.3-0.8,12.6,3.8,14.2,8.8c0.3,0.9,0.6,1.9,0.9,2.8
	c1.3,3.2,4.4,4.8,7.4,4.5c0.8-0.1,1.7-0.3,2.5-0.4c2.1-0.3,3.8,1.7,3.3,3.8c-0.3,1.2-1.2,1.9-2.3,2.3c-0.4,0.2-0.8,0.3-1.2,0.3
	C393.1,425.1,392.1,425.2,391.6,425.3z"/>
<path class="st0" d="M856.3,184.6c1.6-0.1,2.9,0.3,4.3,0.8c0.6,0.2,0.9,0.7,0.8,1.3c-0.3,1.5-0.5,3-0.8,4.6c-1,5.1-2,10.2-3,15.3
	c-0.1,0.6-0.2,1.1-0.2,1.7c-0.2,1.3,0.1,1.8,1.5,2.1c2.3,0.5,4.7,0.9,7,1.4c4.7,0.9,9.4,1.8,14,2.7c0.8,0.1,1.3,0.8,1.2,1.5
	c-0.2,1.2-0.4,2.5-0.7,3.7c-0.1,0.5-0.8,0.9-1.3,0.8c-1-0.1-2-0.2-2.9-0.4c-7.6-1.4-15.2-2.9-22.7-4.3c-0.7-0.1-1.4-0.3-2-0.5
	c-1.3-0.3-1.6-0.7-1.3-2.1c1.6-8.7,3.3-17.4,4.9-26c0.1-0.5,0.3-1.1,0.5-1.6C855.8,185,856.1,184.8,856.3,184.6z"/>
<path class="st0" d="M741.4,1034.6c0.7-0.4,1.2-0.8,1.8-1.2c7.7-4.1,15.4-8.2,23-12.3c0.4-0.2,0.7-0.4,1.2-0.5
	c0.4-0.1,0.9,0,1.1,0.4c0.3,0.5,0.6,0.9,0.9,1.4c4.1,7.7,8.2,15.4,12.3,23.1c0.3,0.5,0.4,1,0.7,1.6c-1.3,1.3-2.8,1.9-4.4,2.5
	c-0.3,0.1-0.9-0.1-1.1-0.4c-0.6-0.8-1-1.7-1.5-2.5c-2.7-5.1-5.4-10.2-8.1-15.2c-0.4-0.7-0.8-1.5-1.3-2.1c-0.2-0.3-0.8-0.4-1.1-0.3
	c-0.8,0.2-1.5,0.6-2.3,1c-5,2.6-9.9,5.3-14.9,7.9c-1,0.5-2,1-3,1.5c-0.4,0.2-0.9,0.1-1.1-0.3
	C742.7,1037.8,741.7,1036.4,741.4,1034.6z"/>
<path class="st0" d="M202.4,425.9c-7.8,0-14.1-6.7-14-14.3c0-6.5,5.2-14.1,14.3-14c8.3,0.1,14.1,6.7,14,14.3
	C216.5,421.1,208.7,426.2,202.4,425.9z M202.6,402c-5.6-0.1-9.7,4.5-9.8,9.4c-0.1,4.9,3.7,9.9,9.7,10c5.6,0.1,9.8-4.5,9.8-9.9
	C212.2,406.7,208,401.8,202.6,402z"/>
<path class="st0" d="M1011.8,55.1c1-1.3,1.8-2.3,2.6-3.3c0.7-0.9,1.4-1,2.1-0.4c1.3,1,2.7,2.1,4,3.1c3.4,2.7,6.8,5.4,10.2,8.1
	c1.1,0.9,2.2,1.7,3.2,2.5c0.9,0,1.4-0.6,1.8-1.1c3.7-4.6,7.3-9.2,11-13.9c0.7-0.9,1.4-1.8,2.1-2.6c0.5-0.6,1.2-0.6,1.9-0.1
	c0.9,0.7,1.8,1.4,2.6,2.1c0.6,0.5,0.6,1.1,0.1,1.8c-0.2,0.3-0.5,0.7-0.8,1c-5.2,6.6-10.5,13.2-15.7,19.8c-0.4,0.5-0.8,1.2-1.5,1.4
	c-0.3,0-0.6,0-0.8-0.2c-7.1-5.6-14.1-11.1-21.2-16.7C1013,56.3,1012.5,55.8,1011.8,55.1z"/>
<path class="st0" d="M72.2,364.4c0,7.3-5.8,12.4-11.6,12.6c-0.7,0-1.4,0-2.1,0.1c-3.9,0.4-6.4,3-6.6,6.9c-0.1,1,0,2-0.1,2.9
	c-0.7,7-7.1,11.8-13.4,11.1c-1.2-0.1-2.3-1.3-2.5-2.5c-0.1-1.2,0.7-2.6,1.9-2.9c0.8-0.2,1.6-0.3,2.5-0.4c3.3-0.6,5.4-3,5.6-6.4
	c0.1-0.8,0-1.7,0.1-2.5c0.4-6,4.4-10.5,10.3-11.7c1.4-0.3,2.8-0.3,4.2-0.5c2.3-0.2,3.9-1.4,5-3.4c0.4-0.7,0.6-1.6,0.8-2.4
	c0.2-0.8,0.2-1.7,0.4-2.5c0.3-1.2,1.5-2.1,2.8-2c1.3,0,2.4,1,2.6,2.3C72.2,363.7,72.2,364.3,72.2,364.4z"/>
<path class="st0" d="M507.9,963.9c0.2-7.6,6.9-13.7,14.5-13.2c7.3,0.4,13.3,6.5,13.1,14.3c-0.2,8-7,13.7-14.3,13.4
	C513.9,978,507.5,972,507.9,963.9z M531.2,964.4c0-5.1-4-9.4-9.3-9.5c-5.6-0.1-9.7,4.5-9.6,9.6c0,4.9,3.8,9.4,9.4,9.4
	C527,974.1,531.3,969.7,531.2,964.4z"/>
<path class="st0" d="M1038.2,545.6c9.4-0.2,19.8,6.7,20.7,19.2c0.5,6.8-2.1,12.6-7.3,17.1c-0.6,0.5-1.3,0.4-1.8-0.2
	c-0.5-0.7-1-1.3-1.5-2c-0.2-0.2-0.3-0.5-0.4-0.8c0-0.3,0-0.6,0.1-0.8c0.4-0.6,0.9-1,1.4-1.6c3.4-3.6,4.6-7.9,3.9-12.8
	c-0.8-5.8-5.5-11-11.2-12.3c-3.6-0.8-7-0.5-10.3,1c-0.6,0.3-1.3,0.6-1.9,0.8c-0.2,0.1-0.6,0-0.8-0.2c-0.7-0.8-1.4-1.7-2.1-2.6
	c-0.5-0.6-0.2-1.3,0.5-1.8C1030.7,546.7,1034.3,545.7,1038.2,545.6z"/>
<path class="st0" d="M1010.6,213.8c-1.9-2.1-3.1-4.7-3.7-7.4c-2.7-12.2,4.8-22.3,14.8-24.7c7.8-1.9,14.7,0.1,20.3,6.1
	c0.3,0.3,0.5,0.7,0.2,1.1c-0.9,1.3-2.1,2.2-3.6,2.7c-1.1-0.9-2-1.7-3-2.4c-8.3-5.7-17.8-2.1-21.6,4.5c-2.6,4.4-2.9,9-1,13.7
	c0.3,0.8,0.8,1.5,1.2,2.2c0.6,1.2,0.5,1.6-0.6,2.5c-0.6,0.5-1.3,1-2,1.5C1011.3,213.8,1011,213.7,1010.6,213.8z"/>
<path class="st0" d="M68.1,1010.7c-6.7,0.3-13.4-5.1-13.5-13.3c0-7.8,6.2-13.4,13.3-13.4c8.5,0,13.5,7.1,13.5,13.3
	C81.5,1004.3,75.7,1010.8,68.1,1010.7z M68.2,1006.5c5.2,0.1,9-4.4,9.1-9.1c0-4.6-3.6-9.4-9.3-9.3c-5.1,0.1-9,3.9-9.1,9.1
	C58.8,1002.3,62.8,1006.6,68.2,1006.5z"/>
<path class="st0" d="M649.8,826.5c-1.3,0-2.5,0-3.8,0c-2-0.1-3.5-1.5-3.6-3.4c-0.1-1.9,1.2-3.6,3.1-4c0.5-0.1,1.1-0.1,1.7-0.2
	c8.4-0.5,16.8-1,25.2-1.5c2.4-0.1,4.8-0.2,7.2-0.2c0.7,0,1.4,0.2,1.9,0.7c1.2,1,1.7,2.2,1.4,3.7c-0.2,1.4-1.1,2.3-2.4,2.7
	c-0.7,0.2-1.4,0.3-2.1,0.4c-5.9,0.3-11.8,0.6-17.7,1C657.1,826,653.4,826.2,649.8,826.5C649.8,826.5,649.8,826.5,649.8,826.5z"/>
<path class="st0" d="M771.8,284.5c0,9.6-6,17.3-14.8,19.7c-0.5,0.1-1.1,0.2-1.7,0.1c-0.2,0-0.6-0.2-0.7-0.4
	c-0.5-1.2-0.8-2.4-0.6-3.7c0-0.3,0.2-0.5,0.4-0.7c0.2-0.2,0.5-0.2,0.8-0.3c0.8-0.3,1.6-0.5,2.4-0.8c5-1.9,9.4-7.4,9-14.3
	c-0.3-6-4.2-11.3-10.1-13.2c-1.3-0.4-2.7-0.5-4.1-0.7c-0.6-0.1-1.1-0.1-1.7-0.2c-0.2-0.1-0.5-0.3-0.6-0.5c-0.5-1.2-0.7-2.4-0.4-3.7
	c0.1-0.2,0.3-0.5,0.5-0.6c0.5-0.2,1.1-0.3,1.6-0.3c9.8,0.2,16.9,6.5,19.2,14.3c0.2,0.8,0.4,1.6,0.5,2.5
	C771.6,282.8,771.7,283.9,771.8,284.5z"/>
<path class="st0" d="M579.9,1042.1c1-1.1,2.3-2,3.6-2.7c0.2-0.1,0.6,0,0.7,0.2c0.6,0.6,1.1,1.3,1.6,1.9c3,4.2,6.1,8.5,9.1,12.7
	c0.6,0.8,1.2,1.6,1.8,2.4c0.3,0.4,1.1,0.5,1.5,0.2c0.8-0.5,1.6-1.1,2.4-1.7c3.9-2.8,7.8-5.6,11.7-8.3c1-0.7,2.1-1.4,3.1-2.1
	c1.7,1,2.1,1.5,3.3,4.3c-0.4,0.4-0.7,0.8-1.2,1.1c-5,3.8-18.8,13.5-21.3,15c-0.2-0.1-0.6-0.2-0.7-0.4c-5.2-7.2-10.3-14.4-15.5-21.6
	C580,1042.8,580,1042.5,579.9,1042.1z"/>
<path class="st0" d="M653.2,377c-0.8,0-1.4-0.3-1.5-1.1c-0.6-3-1.1-6.1-1.7-9.1c-0.6-3.2-1.1-6.4-1.7-9.5c-0.2-1.3-1-1.6-2.1-1.4
	c-2.5,0.4-5,0.8-7.5,1.3c-3.7,0.6-7.5,1.3-11.2,1.9c-0.7,0.1-1.4-0.3-1.5-1.1c-0.2-1-0.3-1.9-0.5-2.9c-0.1-0.5,0.4-1.1,0.9-1.3
	c0.4-0.1,0.8-0.3,1.2-0.3c7.6-1.3,15.2-2.6,22.8-3.9c0.4-0.1,0.8-0.1,1.2-0.1c0.2,0,0.6,0.2,0.7,0.4c0.3,0.9,0.6,1.9,0.8,2.8
	c1.2,6.6,2.3,13.3,3.5,19.9c0,0.1,0,0.3,0.1,0.4C657.1,376.3,657,376.7,653.2,377z"/>
<path class="st0" d="M801.7,401.2c6.3-0.1,11,4.9,11.2,10.3c0,0.8,0,1.7,0.2,2.5c0.4,1.9,1.3,3.4,3,4.4c1,0.6,2.1,0.8,3.2,0.7
	c1.7,0,3.4,0.2,5,0.8c4.4,1.6,7.4,6.1,7.1,10.9c-0.1,0.9-0.5,1.6-1.3,2.1c-1.2,0.8-3.1,0.2-3.5-1.1c-0.2-0.7-0.3-1.4-0.4-2.1
	c-0.5-3.2-2.8-5.2-6-5.4c-0.6,0-1.1,0-1.7,0c-6-0.4-10.1-4.5-10.7-10.5c-0.1-0.7,0-1.4-0.1-2.1c-0.3-2.6-2.1-4.7-4.7-5.2
	c-0.8-0.2-1.7-0.2-2.5-0.4c-1.8-0.5-2.4-2.7-1.1-4c0.3-0.3,0.7-0.5,1-0.6C800.9,401.3,801.5,401.3,801.7,401.2z"/>
<path class="st0" d="M1021.5,742.2c0.6,0.1,1,0.1,1.4,0.1c8.8,1.1,17.5,2.1,26.3,3.2c0.3,0,0.6,0.1,0.8,0.1c1.7,0.4,2.8,2,2.5,3.8
	c-0.2,1.5-1.7,2.7-3.3,2.7c-0.4,0-0.8,0-1.3-0.1c-8.9-1.1-17.8-2.1-26.7-3.2c-0.7-0.1-1.4-0.2-2-0.5c-1.3-0.5-2.2-2-2-3.3
	c0.2-1.6,1.5-2.8,3.1-2.9C1020.8,742.2,1021.3,742.2,1021.5,742.2z"/>
<path class="st0" d="M799.3,893.9c0.3,5.7-4.2,10-8.7,10.4c-1,0.1-2,0.2-2.9,0.5c-2.2,0.6-3.6,2.3-3.8,4.5c-0.1,1,0,2-0.1,2.9
	c-0.3,4.6-3.3,8.3-7.7,9.4c-0.9,0.2-1.9,0.2-2.9,0.1c-0.9,0-1.7-1.2-1.7-2.1c0-0.8,0.6-1.8,1.2-2c0.9-0.3,1.9-0.5,2.8-0.8
	c2-0.7,3.2-2.2,3.5-4.3c0.1-1,0-2,0.1-2.9c0.3-5.1,3.8-9,8.8-9.7c0.7-0.1,1.4-0.1,2.1-0.2c2.4-0.5,4-1.9,4.5-4.4
	c0.2-0.8,0.2-1.7,0.4-2.5c0.2-0.9,1.2-1.7,2.2-1.6c1,0,2,0.9,2.1,1.7C799.2,893.3,799.3,893.7,799.3,893.9z"/>
<path class="st0" d="M23.7,116.4c0.6,0.6,1.2,1.3,2,2c6.6,5.8,16.6,2.8,19-5.4c0.6-2.2,0.6-4.4-0.1-6.6c-0.2-0.8-0.5-1.6-0.7-2.4
	c-0.1-0.2,0.1-0.6,0.3-0.7c0.4-0.4,0.9-0.7,1.3-1c0.9-0.5,1.7-0.3,2.1,0.5c3.1,6,1.8,13.4-2.7,17.9c-7.5,7.7-18.9,5.6-24-1.4
	c-0.4-0.6-0.3-1.3,0.4-1.8C21.9,116.9,22.6,116.4,23.7,116.4z"/>
<path class="st0" d="M300.1,66.5c-6.5-0.3-12.1-4.9-13.8-11.1c-2.3-8.1,2.6-16.5,10.2-18.7c0.8-0.2,1.6-0.4,2.4-0.6
	c0.5-0.1,1.1,0.4,1.2,0.9c0.1,0.6,0.2,1.1,0.2,1.7c0,0.6-0.4,1.2-0.9,1.3c-0.9,0.3-1.9,0.5-2.8,0.9c-4.7,1.9-7.3,7-6.9,11.5
	c0.5,4.9,4,8.8,9,9.9c0.7,0.2,1.4,0.2,2,0.5c0.3,0.1,0.7,0.5,0.8,0.9c0.2,0.5,0.2,1.1,0.2,1.7c0,0.6-0.4,1.1-0.9,1.2
	C300.6,66.5,300.3,66.5,300.1,66.5z"/>
<path class="st0" d="M286.5,289.3c1-0.1,2.2,0.8,2.5,1.9c0.4,1.3-0.2,2.7-1.4,3.1c-0.5,0.2-1,0.4-1.6,0.5
	c-7.1,1.6-14.2,3.3-21.3,4.9c-0.3,0.1-0.5,0.1-0.8,0.1c-1.2,0.1-2.6-0.9-2.8-2.1c-0.2-1.1,0.3-2.4,1.3-2.8c0.5-0.2,1-0.5,1.6-0.6
	c7.2-1.7,14.5-3.3,21.7-5C285.9,289.3,286.2,289.3,286.5,289.3z"/>
<path class="st0" d="M762.1,87.1c1.3-0.1,2.5,0.9,2.7,1.9c0.2,1.2-0.3,2.4-1.4,2.8c-0.6,0.3-1.3,0.5-2,0.7
	c-5.8,1.4-11.7,2.8-17.5,4.2c-1,0.2-1.9,0.4-2.9,0.6c-1.6,0.2-3-1.3-2.6-2.9c0.1-0.7,0.5-1.3,1.2-1.6c0.6-0.3,1.3-0.6,2-0.7
	c6.1-1.5,12.2-2.9,18.4-4.4C760.7,87.4,761.5,87.3,762.1,87.1z"/>
<path class="st0" d="M1032,943c0,1.5-0.8,2.4-1.8,2.6c-1.1,0.2-2.1-0.3-2.5-1.1c-0.3-0.6-0.5-1.3-0.7-2c-1.4-5.7-2.8-11.4-4.1-17.2
	c-0.2-0.7-0.2-1.4-0.2-2.1c0-0.9,1-1.8,1.9-2c0.7-0.1,1.8,0.5,2.1,1.1c0.1,0.2,0.3,0.5,0.4,0.8c0.1,0.4,0.3,0.8,0.4,1.2
	c1.4,5.9,2.8,11.7,4.2,17.6C1032,942.4,1032,943,1032,943z"/>
<path class="st0" d="M654.6,968.3c-0.2-0.1-0.8-0.2-1.2-0.6c-0.4-0.4-0.7-0.9-0.9-1.4c-2.5-5.5-4.9-11-7.3-16.5
	c-0.2-0.5-0.3-1.1-0.4-1.6c-0.2-0.9,0.5-2,1.4-2.3c0.7-0.3,1.9,0.1,2.3,0.7c0.2,0.3,0.5,0.7,0.7,1.1c2.5,5.6,5,11.2,7.5,16.9
	c0.2,0.4,0.3,0.8,0.4,1.2C657.3,966.9,656.3,968.3,654.6,968.3z"/>
<path class="st0" d="M357.9,710.1c0.1,1-0.5,2-1.3,2.3c-0.7,0.3-1.4,0.3-2-0.2c-0.5-0.3-0.9-0.7-1.2-1.1c-3.9-4.4-7.8-8.8-11.7-13.2
	c-0.3-0.3-0.5-0.7-0.8-1c-0.8-1.1-0.5-2.4,0.7-3.2c0.6-0.4,1.5-0.4,2-0.1c0.2,0.2,0.5,0.3,0.7,0.5c4.4,4.9,8.7,9.8,13.1,14.8
	C357.6,709.3,357.8,709.9,357.9,710.1z"/>
<path class="st0" d="M808.7,611.3c-0.3,0-0.7-0.1-1.1-0.3c-0.6-0.4-1.1-0.8-1.6-1.3c-3.8-3.5-7.7-7-11.5-10.5c-0.5-0.5-1-1-1.4-1.6
	c-0.5-0.6-0.4-1.6,0.2-2.3c0.5-0.6,1.6-0.9,2.3-0.6c0.5,0.3,1,0.6,1.4,0.9c4.1,3.8,8.3,7.6,12.4,11.4c0.4,0.4,0.7,0.8,1.1,1.3
	c0.4,0.5,0.4,1.4,0,2C810.1,610.9,809.6,611.3,808.7,611.3z"/>
<path class="st0" d="M430.7,869.3c0.1,1.2-0.7,2.2-1.4,2.4c-0.7,0.2-1.8-0.3-2.1-1c-0.2-0.5-0.5-1-0.6-1.6
	c-1.4-4.7-2.8-9.4-4.2-14.1c-0.2-0.7-0.3-1.4-0.3-2.1c-0.1-0.8,0.6-1.7,1.4-1.9c0.8-0.2,1.8,0.3,2.1,1c0.2,0.5,0.5,1,0.6,1.5
	c1.4,4.7,2.8,9.4,4.2,14.1C430.6,868.4,430.6,869.1,430.7,869.3z"/>
<path class="st0" d="M1641.5,468.5c-0.5,0.1-0.9,0.3-1.3,0.3c-6,0.3-12.1,0.6-18.1,1c-7.3,0.4-14.6,0.9-21.9,1.3
	c-4.3,0.2-8.7,0.3-13,0.5c-0.3,0-0.7-0.7-0.5-0.9c0.2-0.4,0.4-0.8,0.6-1.1c0.5-0.7,0.9-1.4,1.4-2.1c8.6-13,17.3-25.9,25.9-38.9
	c0.3-0.5,0.7-0.9,0.9-1.4c0.7-1.4,1.9-1.9,3.4-2c6.7-0.3,13.5-0.6,20.2-1c7.3-0.4,14.6-0.9,21.9-1.3c3.4-0.2,6.7-0.2,10.1-0.3
	c0.3,0,0.7,0.6,0.5,1c-0.3,0.6-0.7,1.2-1,1.8c-9.1,13.7-18.2,27.3-27.3,41C1642.7,467,1642.1,467.8,1641.5,468.5z M1636.6,460.4
	c0.7-0.9,1.2-1.5,1.7-2.2c5.2-7.8,10.4-15.7,15.6-23.5c0.4-0.6,0.7-1.2,1.1-1.8c0.3-0.5-0.1-1.1-0.7-1.1c-1,0-2,0-2.9,0.1
	c-9.4,0.5-18.8,1.1-28.2,1.6c-0.3,0-0.6,0-0.8,0.1c-0.4,0.2-0.8,0.3-1.1,0.6c-0.4,0.4-0.7,0.9-1,1.3c-5.4,8.2-10.9,16.4-16.3,24.6
	c-0.2,0.3-0.5,0.7-0.6,1.1c-0.1,0.2,0.1,0.5,0.2,0.8c0.5,0,1.1,0.1,1.6,0.1C1615.6,461.6,1625.9,461,1636.6,460.4z"/>
<path class="st0" d="M1974.8,956.7c1-0.1,1.8,0.5,2.7,0.9c6.5,3.2,13.1,6.5,19.6,9.7c7.5,3.7,15.1,7.5,22.6,11.2c1,0.5,2,1,3,1.5
	c0.8,0.4,1.2,1.1,1.4,2c0.5,2.8,1.1,5.5,1.6,8.3c2.5,13.2,4.9,26.5,7.4,39.7c0.3,1.4,0.3,2.8,0.5,4.2c0,0.3-0.3,0.5-0.6,0.4
	c-0.5-0.2-1.1-0.4-1.6-0.6c-15-7.4-29.9-14.8-44.9-22.2c-0.4-0.2-0.7-0.4-1.1-0.6c-0.7-0.3-1.1-0.9-1.3-1.6
	c-0.2-0.8-0.4-1.6-0.5-2.5c-2.1-11.4-4.3-22.9-6.4-34.3c-0.9-4.8-1.8-9.7-2.7-14.5C1974.4,957.7,1974.4,957.2,1974.8,956.7z
	 M2016.2,986.4c-0.6-0.4-0.9-0.6-1.3-0.8c-8.8-4.4-17.6-8.7-26.4-13.1c-0.5-0.2-1-0.4-1.6-0.6c-0.3-0.1-0.8,0.3-0.8,0.7
	c0.1,1.1,0.2,2.2,0.4,3.3c1,5.7,2.1,11.3,3.2,17c0.6,3.5,1.3,6.9,2,10.4c0.2,1,0.8,1.7,1.7,2.2c9.1,4.5,18.1,9,27.2,13.4
	c0.4,0.2,0.8,0.3,1.2,0.4c0.2,0,0.4-0.3,0.5-0.5c0.1-0.2,0.1-0.6,0-0.8c-1.5-8-3-16-4.5-24C2017.3,991.6,2016.9,989.1,2016.2,986.4z
	"/>
<path class="st0" d="M1246.5,62.4c-0.2,1.2-0.4,2.5-0.6,3.7c-1,6.1-2,12.2-3,18.3c-1,6-1.9,11.9-2.9,17.9c-0.5,3.2-1.1,6.4-1.6,9.5
	c-0.1,0.6-0.9,0.9-1.3,0.6c-0.2-0.2-0.4-0.3-0.6-0.5c-0.6-0.6-1.2-1.2-1.8-1.8c-10.1-10.5-20.2-21-30.4-31.6c-0.7-0.7-1.3-1.4-2-2.1
	c-0.6-0.7-0.8-1.5-0.6-2.3c0.6-3.7,1.2-7.5,1.8-11.2c1.3-8,2.6-16.1,3.9-24.1c0.6-3.9,1.2-7.8,1.9-11.6c0.1-0.8,0.4-1.6,0.7-2.4
	c0.1-0.1,0.6-0.3,0.7-0.2c0.8,0.6,1.5,1.3,2.2,2c6.6,6.9,13.2,13.8,19.9,20.6c4.2,4.4,8.4,8.7,12.5,13.1
	C1246,60.8,1246.6,61.4,1246.5,62.4z M1232.5,95.3c0.7-1.1,0.8-2.3,1-3.6c1.1-6.5,2.1-13,3.2-19.5c0.4-2.2,0.7-4.4,1.1-6.7
	c0.1-0.9-0.1-1.7-0.7-2.3c-0.5-0.5-1-1-1.4-1.5c-5.8-6.1-11.7-12.1-17.5-18.2c-0.4-0.4-0.8-0.8-1.2-1.2c-0.2-0.2-0.5-0.3-0.7-0.5
	c-0.3-0.2-0.9,0-1,0.4c-1.5,8.9-2.9,17.7-4.4,26.6c-0.2,1-0.3,1.9-0.5,2.9c-0.1,0.7,0.1,1.4,0.6,1.9c0.6,0.6,1.1,1.2,1.7,1.8
	c5.6,5.9,11.3,11.7,16.9,17.6c0.7,0.7,1.4,1.4,2.1,2C1231.9,95.2,1232.3,95.2,1232.5,95.3z"/>
<path class="st0" d="M1605,245.3c11.3-0.1,23.9,8.9,23.9,24.3c0,13.8-10.8,24.4-24.4,24.3c-14.9-0.1-24.4-12.4-24.2-24.5
	C1580.6,255.4,1592,245,1605,245.3z M1587.9,269.6c-0.2,7.4,5.6,16.5,16.6,16.7c9.7,0.1,17-7.5,16.9-16.8
	c-0.1-11.3-9.6-16.9-17-16.7C1595.5,253,1587.8,260.4,1587.9,269.6z"/>
<path class="st0" d="M1550.8,41.9c11.6-0.3,22.2,9.4,22.3,22.1c0.1,10.9-8.3,22.2-22.1,22.3c-13.8,0.1-22.3-11.2-22.3-22.1
	C1528.7,51.7,1539,41.8,1550.8,41.9z M1566.2,64c0.1-8.1-6.6-15.2-15.2-15.2c-8.6,0-15.5,7.2-15.3,15.6c0.1,7.4,6.3,15.1,15.5,15
	C1559.8,79.3,1566.4,71.8,1566.2,64z"/>
<path class="st0" d="M1544.3,670.9c-0.1,0.4-0.1,0.7-0.3,0.9c-1.3,1.6-2.7,3.3-4,4.9c-0.4,0.4-1,0.4-1.5,0c-0.2-0.2-0.5-0.3-0.7-0.5
	c-7.6-7.4-10.9-16.4-10-27c1-11.9,9.9-24.5,24.4-28c9.7-2.3,18.7-0.6,26.8,5.2c0.2,0.2,0.4,0.3,0.7,0.5c0.5,0.4,0.6,1.1,0.3,1.5
	c-1.3,1.6-2.7,3.3-4,4.9c-0.3,0.4-1.1,0.5-1.5,0.2c-0.8-0.5-1.6-1.1-2.5-1.6c-2.7-1.5-5.6-2.5-8.7-2.9c-10.4-1.5-21.1,4.3-25.1,14.4
	c-3.5,8.8-2.3,17,3.6,24.5c0.4,0.6,0.9,1,1.4,1.6C1543.5,669.9,1543.9,670.4,1544.3,670.9z"/>
<path class="st0" d="M1158.5,750.7c-0.2,1.1-0.5,2.6-0.7,4.1c-1.7,9.5-3.3,19.1-5,28.6c-0.1,0.4-0.2,0.8-0.3,1.2
	c-0.1,0.3-0.8,0.4-1.1,0.2c-0.4-0.4-0.9-0.7-1.2-1.1c-7.3-7.8-14.6-15.5-22-23.3c-0.3-0.3-0.6-0.6-0.8-0.9c-0.5-0.6-0.6-1.2-0.5-2
	c0.5-2.9,1-5.8,1.5-8.7c1.4-8.2,2.8-16.3,4.2-24.5c0.1-0.4,0.2-0.8,0.5-1.1c0.1-0.2,0.5-0.2,0.7-0.2c0.4,0.2,0.7,0.4,1,0.7
	c7.5,8,15,15.9,22.6,23.9c0.2,0.2,0.4,0.4,0.6,0.6C1158.4,748.9,1158.6,749.6,1158.5,750.7z M1136.8,735.3c-0.2,0.9-0.6,1.8-0.7,2.8
	c-0.7,3.9-1.3,7.7-2,11.6c-0.3,1.9-0.6,3.9-1,5.8c-0.2,1.2,0.2,2.1,1,3c4.3,4.5,8.5,9,12.7,13.4c0.3,0.3,0.6,0.5,1,0.8
	c0.3,0.2,0.6,0.1,0.7-0.2c0.2-0.4,0.4-0.7,0.5-1.1c1.1-6.3,2.2-12.7,3.3-19c0.2-0.9-0.1-1.6-0.7-2.3c-1.9-2-3.8-4.1-5.8-6.1
	c-2.5-2.6-5-5.3-7.5-7.9C1137.9,735.6,1137.5,735.3,1136.8,735.3z"/>
<path class="st0" d="M1478.1,177.7c1.1-0.1,2.2-0.2,3.4-0.3c0.9-0.1,1.7,0.2,2.3,0.9c0.6,0.6,1.1,1.2,1.7,1.9
	c6.5,7.2,13,14.4,19.5,21.6c0.7,0.7,1.2,1.5,1.9,2.3c0.2,0.3-0.1,0.9-0.5,1c-1.4,0.2-2.8,0.4-4.2,0.6c-5.3,0.5-10.6,1-16,1.5
	c-4.8,0.4-9.5,0.8-14.3,1.2c-0.9,0.1-1.7-0.2-2.3-0.9c-0.4-0.5-0.9-1-1.4-1.6c-6.6-7.3-13.2-14.6-19.8-21.9
	c-0.7-0.7-1.2-1.5-1.8-2.3c-0.2-0.3,0.1-1,0.4-1c0.1,0,0.3-0.1,0.4-0.1c3.8-0.3,7.6-0.7,11.3-1c4.6-0.4,9.2-0.9,13.9-1.3
	C1474.4,178,1476.3,177.8,1478.1,177.7C1478.1,177.7,1478.1,177.7,1478.1,177.7z M1472.7,202.2c1.5,0,2.7,0.1,3.8,0
	c5.9-0.5,11.8-1.1,17.6-1.7c0.5,0,1-0.5,0.9-0.7c-0.1-0.3-0.1-0.6-0.3-0.8c-4.4-4.9-8.8-9.8-13.3-14.7c-0.6-0.7-1.4-0.9-2.3-0.9
	c-5.7,0.5-11.5,1-17.2,1.5c-1.1,0.1-2.2,0.3-3.3,0.5c0,0.2-0.1,0.4-0.1,0.5c0,0.1,0,0.3,0.1,0.4
	C1463.3,191.6,1467.9,196.8,1472.7,202.2z"/>
<path class="st0" d="M1665,637.2c0.6-0.4,1.2-0.9,1.7-1.2c2.8-1.6,5.9-2.7,9.1-3.2c18-2.9,32.4,8.4,35.9,23.8
	c2.2,12.9-1.5,23.6-12,31.7c-0.3,0.3-0.7,0.5-1.1,0.6c-0.2,0.1-0.6,0-0.7-0.2c-0.8-1-1.5-2-2.2-3.1c-1.8-2.9-2.1-2.6,0.7-5
	c5.5-4.8,8.2-11,7.9-18.3c-0.5-11.4-9-19.5-18.4-21.3c-4.9-0.9-9.5-0.3-14,1.6c-0.8,0.3-1.5,0.7-2.3,1c-0.2,0.1-0.5-0.1-0.8-0.2
	c-0.1,0-0.2-0.2-0.3-0.3C1667.2,641.2,1665.9,639.4,1665,637.2z"/>
<path class="st0" d="M1305.8,982.1c-10.7,0-18.1-7.6-19.1-16.4c-0.2-1.4-0.3-2.8-0.7-4.1c-1.1-3.7-4.8-7-9.1-6.9
	c-1.4,0-2.8,0.1-4.2,0.2c-2.4,0.1-4.8,0-7.1-0.9c-7.2-2.7-11.4-7.8-12.6-15.4c-0.1-0.8-0.1-1.7,0-2.5c0.2-1.8,1.9-3.3,3.7-3.4
	c1.9-0.2,3.8,1,4.4,2.6c0.2,0.5,0.2,1.1,0.3,1.6c0.2,0.8,0.3,1.6,0.6,2.5c1.3,4.5,5.6,7,9.5,7c1.1,0,2.2-0.2,3.4-0.2
	c4-0.3,7.8,0.5,11.3,2.6c5.1,3.2,7.9,7.8,8.8,13.7c0.1,0.8,0.1,1.7,0.2,2.5c0.7,3.7,2.6,6.5,6.2,7.9c0.9,0.4,1.9,0.6,2.8,0.7
	c1.1,0.1,2.2,0,3.4,0c1.9,0,3.2,1,3.9,2.7c1,2.2-0.4,5.2-2.8,5.6C1307.6,982,1306.4,982,1305.8,982.1z"/>
<path class="st0" d="M2019.6,490.4c0.4,0.3,0.8,0.6,1.2,1c9.2,9.1,18.3,18.2,27.5,27.3c0.4,0.4,0.8,0.8,1.1,1.3
	c0.2,0.4,0.3,0.8,0,1.2c-1.6,1.6-3.1,3.2-4.8,4.7c-0.2,0.2-0.9,0.1-1.1-0.1c-1-0.8-1.9-1.7-2.8-2.6c-6.2-6.1-12.4-12.3-18.5-18.4
	c-0.7-0.7-1.4-1.4-2.1-2c-0.2-0.2-0.9-0.3-1.2,0c-0.8,0.8-1.7,1.5-2.5,2.3c-6.1,6.2-12.3,12.4-18.4,18.5c-0.8,0.8-1.6,1.6-2.4,2.3
	c-0.4,0.3-1.1,0.3-1.5-0.1c-1.5-1.5-3-3-4.5-4.5c-0.2-0.2-0.3-0.5-0.4-0.7c2.2-2.7,10.8-11.5,27.7-28.2c0.7-0.7,1.5-1.3,2.2-1.9
	C2019.2,490.5,2019.3,490.5,2019.6,490.4z"/>
<path class="st0" d="M1971,781.3c0.9-1.3,2.2-2.4,3.4-3.6c0.6-0.6,1.2-1.1,1.8-1.6c1.3,0.4,2,1.3,2.7,2.1
	c5.9,5.8,11.8,11.7,17.7,17.5c0.9,0.9,1.8,1.8,2.7,2.6c0.7,0.7,1.4,0.7,2.2-0.1c0.9-0.9,1.8-1.8,2.7-2.7c5.6-5.7,11.3-11.4,16.9-17
	c0.8-0.8,1.6-1.6,2.5-2.3c0.3-0.3,0.8-0.3,1.2,0c1.8,1.6,3.6,3.1,5,5.2c-0.5,0.6-0.9,1.2-1.4,1.6c-8.6,8.7-17.2,17.4-25.8,26
	c-0.5,0.5-1,1-1.6,1.4c-0.3,0.2-0.8,0.2-1.2-0.1c-0.5-0.5-1.1-0.9-1.6-1.4c-8.5-8.4-17-16.8-25.4-25.2
	C1972.1,783.1,1971.2,782.5,1971,781.3z"/>
<path class="st0" d="M1300.3,550.7c0.1,9.4-7.2,19.2-19.3,19.2c-10.1,0-19-7.7-19.1-19c-0.1-11.1,8.5-19.4,19.1-19.5
	C1292.3,531.4,1300.3,540.6,1300.3,550.7z M1294.3,550.6c-0.2-7.1-5.6-13.3-13.6-13.2c-7.4,0.2-13,5.8-12.9,13.3
	c0.1,7.8,6,13.2,13.1,13.2C1289.7,563.9,1294.3,556.8,1294.3,550.6z"/>
<path class="st0" d="M2014.1,674.3c-0.1,0.4-0.1,0.7-0.3,0.9c-1.1,1.3-2.2,2.6-3.3,3.8c-0.3,0.3-0.7,0.5-1.1,0.8
	c-0.4-0.3-0.9-0.6-1.3-1c-6.1-6.5-8.6-14.3-7.9-23.2c0.8-9.7,7.9-22,22.7-25.2c9-1.9,17.3,0.1,24.5,6c0.5,0.4,0.7,1.1,0.3,1.5
	c-1.3,1.6-2.6,3.3-4.3,4.6c-0.4-0.2-0.8-0.3-1.1-0.5c-0.8-0.5-1.6-1.1-2.4-1.6c-11.3-6.7-27.3-1.9-31.5,12.7
	c-1.9,6.6-0.6,12.8,3.4,18.4C2012.6,672.4,2013.4,673.3,2014.1,674.3z"/>
<path class="st0" d="M1331.9,835.1c0.9,1.1,1.6,2.1,2.4,3c4.3,5,9.8,7.6,16.3,7.5c8-0.2,14.3-3.8,18.2-10.9
	c2.9-5.2,3.3-10.6,1.6-16.3c-0.2-0.5-0.3-1.1-0.6-1.6c-1.1-2.4-0.6-2.6,1.2-3.7c0.8-0.5,1.7-1,2.6-1.4c1.3-0.7,1.9-0.4,2.6,1
	c7.3,15.6-0.9,35.2-19.4,39.6c-12.8,3.1-24.8-3.1-30.6-12.7c-0.4-0.6-0.4-1.2,0-1.5c0.7-0.5,1.4-0.9,2.1-1.3
	C1329.6,836.3,1330.7,835.8,1331.9,835.1z"/>
<path class="st0" d="M1161.6,250.2c2.5-0.1,5.1,0.5,7.5,1.7c0.9,0.4,1.7,0.9,2.7,1.3c3.2,1.2,6.3,0.9,9.1-1.2c1-0.8,1.8-1.8,2.4-2.9
	c0.5-1,1-2,1.7-2.9c5-7.7,14.7-9.7,22.2-5.8c0.5,0.3,1,0.6,1.4,0.9c1.2,0.9,1.7,2.8,1.2,4.2c-0.5,1.6-2.2,2.7-3.9,2.6
	c-0.6-0.1-1.1-0.2-1.6-0.4c-0.7-0.2-1.3-0.5-1.9-0.8c-3.9-1.7-8.5,0.2-10.7,3.5c-0.7,1.1-1.2,2.2-1.9,3.3c-1.8,3-4.3,5.2-7.4,6.6
	c-4.6,2.1-9.2,2-13.9,0.1c-1.2-0.5-2.3-1.1-3.4-1.6c-4.1-1.9-8.5-0.2-10.9,3c-0.6,0.8-1,1.7-1.6,2.5c-1,1.3-2.9,1.8-4.5,1.2
	c-1.6-0.6-2.6-2.3-2.3-4.1c0.1-0.7,0.3-1.4,0.6-2C1149.2,253.9,1155.1,250,1161.6,250.2z"/>
<path class="st0" d="M1601.5,795c-0.2-1.3-0.5-2.7-0.7-4.1c-0.7-5.9-1.3-11.7-2-17.6c-0.3-2.9-0.7-5.9-1-8.8
	c-0.1-0.9,0.2-1.7,0.9-2.3c0.3-0.3,0.6-0.6,0.9-0.9c6.7-6.4,13.4-12.8,20.1-19.2c0.5-0.5,1-1.1,1.9-0.6c0.2,1.6,0.6,3.2,0.8,4.9
	c0.7,5.9,1.3,11.7,2,17.6c0.3,2.2,0.6,4.5,0.8,6.7c0.3,2.9,0.2,2.7-1.9,4.7c-2.1,2-4.3,4.1-6.4,6.1c-4.2,4-8.3,8-12.5,11.9
	c-0.6,0.6-1.3,1.1-1.9,1.6C1602.3,795.2,1601.9,795.1,1601.5,795z M1619.9,771.8c0-1.3,0.1-2.3,0-3.3c-0.5-4.7-1.1-9.5-1.7-14.2
	c0-0.3-0.1-0.6-0.1-0.8c0-0.1-0.1-0.3-0.1-0.4c-0.2-0.8-0.9-1.1-1.5-0.6c-4,3.8-7.9,7.6-11.9,11.3c-0.2,0.2-0.4,0.4-0.6,0.6
	c-0.5,0.5-0.8,1.1-0.8,1.9c0,0.7,0.1,1.4,0.1,2.1c0.6,4.9,1.2,9.8,1.7,14.6c0,0.4,0.2,0.8,0.4,1.2c0.1,0.2,0.5,0.3,0.7,0.2
	c0.5-0.2,1-0.6,1.4-0.9c3.1-2.9,6.1-5.8,9.1-8.7C1617.8,773.7,1618.9,772.7,1619.9,771.8z"/>
<path class="st0" d="M1739.9,31.5c-0.7,1-1.2,1.6-1.8,2.3c-6.9,8.3-13.9,16.6-20.9,24.9c-0.5,0.5-0.9,1.1-1.4,1.6
	c-0.5,0.5-1.3,0.6-1.9,0.1c-2.6-2.2-5.2-4.3-7.8-6.5c-5.9-5-11.9-9.9-17.8-14.9c-0.9-0.7-1.7-1.5-2.5-2.3c-0.2-0.2-0.2-0.6-0.1-0.8
	c1.1-1.8,2.4-3.4,4-4.8c0.2-0.1,0.6-0.2,0.8-0.1c0.6,0.3,1.2,0.7,1.7,1.2c5.3,4.4,10.5,8.9,15.8,13.2c1.9,1.6,3.5,3.6,6,4.4
	c2-1.4,3.2-3.5,4.8-5.3c4.1-4.8,8.1-9.7,12.2-14.5c0.8-1,1.7-1.9,2.5-2.8c0.3-0.3,0.8-0.3,1.2-0.1
	C1736.6,28.4,1738.3,29.7,1739.9,31.5z"/>
<path class="st0" d="M1147.4,551c-0.1-5.1,1.6-9,4.8-12.3c0.7-0.7,1.5-1.3,2.1-2c3.2-3.3,3.4-7.8,0.7-11.5c-0.6-0.8-1.3-1.5-1.9-2.2
	c-5.9-7.4-4.4-17.1,2-22.7c0.8-0.7,1.6-1.1,2.6-1.1c2-0.1,3.4,1,3.9,3.1c0.2,0.9-0.1,1.7-0.5,2.4c-0.2,0.4-0.5,0.7-0.8,1
	c-0.5,0.5-1,1-1.4,1.5c-2.6,3.2-2.7,7.2-0.3,10.5c0.6,0.9,1.5,1.7,2.1,2.6c2.2,2.8,3.5,6,3.7,9.7c0.2,4.6-1.4,8.5-4.5,11.9
	c-0.8,0.8-1.6,1.5-2.4,2.3c-3.3,3.3-3.2,8.3-1,11.2c0.6,0.8,1.2,1.6,1.7,2.4c0.6,1,0.5,2.2,0,3.2c-1,1.9-3.8,3.1-6,0.9
	c-2.6-2.6-4.1-5.6-4.6-9.3C1147.4,551.9,1147.4,551.2,1147.4,551z"/>
<path class="st0" d="M2004,71.5c0.2,9.9-8.1,17.7-17.5,17.8c-8.1,0.1-17.6-5.9-17.8-17.5c-0.1-10.2,7.8-17.8,17.5-17.8
	C1997.8,53.9,2004.1,63.5,2004,71.5z M1974.3,71.7c-0.2,5.2,3.9,12,12,12.1c6.7,0.1,12.1-4.9,12.2-12c0.1-7.4-6-12.3-12.3-12.3
	C1979.7,59.5,1974.1,65.2,1974.3,71.7z"/>
<path class="st0" d="M1257.4,711.5c0.2-4.1,1.3-7.4,3.5-10.2c0.6-0.8,1.3-1.5,1.9-2.2c2.8-3.7,2.5-8.1-0.7-11.5
	c-0.8-0.8-1.7-1.5-2.4-2.3c-5.6-5.8-5.8-15.4-0.3-21.4c0.3-0.3,0.6-0.6,0.9-0.9c1.1-0.9,2.3-1.2,3.5-0.7c1.4,0.5,2.3,1.7,2.4,3.2
	c0,0.7-0.2,1.4-0.5,2c-0.4,0.7-1,1.3-1.5,2c-2.6,3.8-1.9,8.1,1.2,11.1c0.7,0.7,1.5,1.3,2.1,2c5.5,5.6,6.1,14.5,1.2,20.8
	c-0.7,0.9-1.5,1.7-2.1,2.6c-2.4,3.3-2.4,7.3,0.2,10.5c0.5,0.7,1.2,1.2,1.7,1.8c1.3,1.5,1.2,3.7-0.1,5c-1.4,1.4-3.3,1.5-4.9,0.2
	c-2.6-2.1-4.4-4.7-5.3-7.9C1257.8,714.1,1257.6,712.6,1257.4,711.5z"/>
<path class="st0" d="M1732.1,172.8c-1.2-0.2-2.5-0.3-3.7-0.6c-1-0.2-1.9-0.5-2.8-0.8c-4.6-1.3-8.9,1.4-10.2,5.2
	c-0.3,0.9-0.6,1.9-1,2.8c-1.7,4.1-4.5,7.1-8.6,8.8c-3.8,1.6-7.6,1.7-11.5,0.3c-0.3-0.1-0.5-0.3-0.7-0.4c-1.4-0.8-2.1-2.5-1.6-4
	c0.5-1.6,2.2-2.9,3.9-2.6c1,0.2,1.9,0.5,2.9,0.6c4.5,0.6,7.7-2.1,9-5.4c0.4-1,0.7-2.1,1.1-3.2c2.9-6.9,9.9-10.5,16.7-9.4
	c1.1,0.2,2.2,0.5,3.3,0.7c1.1,0.2,2.2,0.5,3.3,0.5c3.2,0.1,5.6-1.4,7.2-4.2c0.5-0.8,0.8-1.8,1.2-2.7c0.9-1.8,2.7-2.5,4.6-1.8
	c1.4,0.5,2.5,2.4,2.2,3.7c-1.4,5.6-4.7,9.5-10.2,11.4C1735.4,172.4,1733.8,172.8,1732.1,172.8z"/>
<path class="st0" d="M1426.7,545.3c0.5,3.6,1.1,6.9,1.5,10.2c0.8,5.7,1.5,11.4,2.3,17.1c0.1,0.4,0,0.8-0.1,1.2
	c-0.1,0.2-0.4,0.4-0.6,0.4c-0.4-0.1-0.8-0.3-1.1-0.5c-7.4-4.1-14.7-8.1-22.1-12.2c-0.4-0.2-0.8-0.4-1.1-0.7
	c-0.4-0.4-0.7-0.9-0.9-1.3c-0.2-0.4-0.2-0.8-0.3-1.2c-1.2-8.3-2.3-16.7-3.4-25c-0.1-0.4,0-0.8,0-1.2c0-0.3,0.6-0.7,0.9-0.5
	c0.8,0.4,1.5,0.7,2.3,1.1c6.6,3.7,13.3,7.3,19.9,11C1424.8,544.1,1425.6,544.6,1426.7,545.3z M1406.7,541.4c0.2,1.7,0.5,3.8,0.8,5.9
	c0.4,2.8,0.8,5.6,1.2,8.4c0.2,1.2,0.7,2.1,1.8,2.6c4.2,2.3,8.4,4.6,12.5,6.9c0.2,0.1,0.5,0.3,0.8,0.3c0.3,0,0.6,0,0.8-0.1
	c0.2-0.2,0.3-0.5,0.2-0.8c-0.7-4.9-1.4-9.7-2-14.6c-0.2-1.4-0.7-2.3-2-3c-4.1-2.2-8.1-4.5-12.2-6.7c-0.4-0.2-0.8-0.3-1.2-0.5
	c-0.3-0.1-0.8,0.3-0.8,0.7C1406.7,540.8,1406.7,540.9,1406.7,541.4z"/>
<path class="st0" d="M1845.8,508.3c8-0.2,16.3,6.4,16.2,16.4c-0.1,9.6-7.9,16.2-16.4,16.2c-9.4-0.1-16.3-7.8-16.2-16.4
	C1829.4,515,1837.4,508,1845.8,508.3z M1845.6,513.4c-6.1-0.2-11.2,5-11.2,11.2c0,5.6,4.5,11.2,11.3,11.2c6.2,0,11.2-4.9,11.2-11.2
	C1856.8,517.8,1851.3,513.2,1845.6,513.4z"/>
<path class="st0" d="M1313.6,174.2c0.3,0.9,0.7,1.7,0.9,2.5c2.2,7.1,4.5,14.2,6.7,21.3c0.2,0.8,0.4,1.6,0.5,2.5
	c0,0.1-0.4,0.5-0.6,0.5c-0.6,0-1.1-0.1-1.6-0.3c-7.5-2.6-15.1-5.3-22.6-8c-0.4-0.1-0.8-0.3-1.2-0.5c-0.3-0.2-0.6-0.6-0.9-0.9
	c-0.2-0.2-0.2-0.5-0.3-0.8c-2.5-8-5-16-7.6-24.1c-0.1-0.3-0.1-0.6,0-0.8c0.1-0.2,0.4-0.5,0.6-0.5c0.4,0,0.8,0,1.2,0.2
	c7.9,2.8,15.9,5.6,23.8,8.4C1312.8,173.7,1313,173.9,1313.6,174.2z M1299,188.5c4.1,1.6,8.3,3,12.5,4.5c0.8,0.3,1.6,0.5,2.4,0.7
	c0.5,0.1,1-0.5,0.8-1.1c-1.4-4.7-2.9-9.4-4.4-14.1c-0.2-0.7-0.7-1.2-1.4-1.5c-4.6-1.6-9.3-3.3-13.9-4.9c-0.5-0.2-1.1,0-1.1,0.3
	c0,0.3-0.2,0.6-0.1,0.8c1.5,4.7,2.9,9.4,4.4,14C1298.4,187.6,1298.7,188,1299,188.5z"/>
<path class="st0" d="M1442.7,1030.6c3.3-6.8,6.8-13.9,10.3-21.1c0.6-1.3,1.6-1.8,2.9-2.1c3-0.6,6.1-1.2,9.1-1.8
	c4.5-0.9,9.1-1.7,13.6-2.6c0.4-0.1,0.8-0.1,1.3-0.1c0.4,0,0.9,0.4,0.7,0.8c-0.2,0.5-0.3,1.1-0.6,1.6c-3.3,6.8-6.6,13.6-10,20.4
	c-0.1,0.3-0.2,0.5-0.4,0.8c-0.5,1-1.2,1.5-2.3,1.7c-4.4,0.8-8.8,1.7-13.2,2.5c-2.8,0.5-5.5,1.1-8.3,1.6c-1,0.2-1.9,0.3-2.9,0.4
	c-0.6,0.1-1-0.5-0.7-1.1C1442.5,1031.3,1442.5,1031.2,1442.7,1030.6z M1466,1023.7c0.3-0.5,0.6-0.8,0.8-1.2
	c1.9-3.9,3.8-7.8,5.7-11.7c0.2-0.4,0.3-0.8,0.5-1.2c0.1-0.3-0.3-0.8-0.7-0.8c-0.3,0-0.6,0-0.8,0c-4.6,0.9-9.1,1.7-13.7,2.6
	c-0.7,0.1-1.2,0.7-1.5,1.3c-2.1,4.3-4.2,8.6-6.3,12.9c-0.1,0.1,0,0.3-0.1,0.4c0,0.3,0.1,0.6,0.5,0.6c1.3-0.1,2.5-0.2,3.8-0.4
	c2.6-0.5,5.2-1,7.9-1.5C1463.4,1024.4,1464.8,1024.1,1466,1023.7z"/>
<path class="st0" d="M1850.5,723.6c3.3,1.4,9.9,5.1,25.2,14.1c0.7,0.4,1.4,0.9,2.1,1.4c0.1,0.1,0.1,0.2,0.2,0.5
	c-0.2,0.4-0.4,0.9-0.7,1.4c-4.6,8.1-9.2,16.1-13.8,24.2c-0.2,0.4-0.4,0.8-0.7,1c-0.3,0.2-0.8,0.4-1.1,0.3c-1.5-0.7-3-1.4-4.2-2.4
	c-0.3-1,0.2-1.5,0.5-2.1c3.3-5.7,6.6-11.5,9.8-17.2c0.5-1,1-2,1.5-2.9c-0.6-1.1-1.5-1.4-2.4-1.9c-5.7-3.3-11.5-6.6-17.2-9.8
	c-0.6-0.3-1.2-0.8-1.7-1.2c-0.2-0.2-0.3-0.6-0.2-0.8C1848.5,726.5,1849.4,725,1850.5,723.6z"/>
<path class="st0" d="M2065.9,352.6c-8.4,0.3-14.8-6.8-15-14.4c-0.2-7.8,5.8-15.1,14.7-15.2c8.4-0.1,15,6.6,15,14.9
	C2080.6,346.1,2073.8,352.7,2065.9,352.6z M2065.7,327.7c-5.8-0.1-10.3,4.7-10.2,10.1c0,6.1,5,10.2,10.2,10.2
	c5.5,0,10.2-4.3,10.2-10.2C2075.9,332.2,2071.2,327.6,2065.7,327.7z"/>
<path class="st0" d="M1479.8,425.3c-6.5,0.1-11.1-3.7-13-8.3c-0.4-1-0.7-2.1-1.1-3.2c-1-2.9-4.3-5.5-8.5-4.6c-1.5,0.4-3,0.8-4.5,0.9
	c-3.4,0.2-6.4-0.6-9.1-2.7c-2.6-2-4.1-4.6-4.9-7.7c-0.4-1.5,0.3-2.8,1.6-3.5c1.4-0.7,3.3-0.2,4,1.2c0.4,0.8,0.6,1.6,1,2.3
	c0.8,1.7,2.1,2.9,3.9,3.7c1.5,0.6,3,0.6,4.5,0.3c1.2-0.3,2.5-0.6,3.7-0.8c7.3-0.8,12.6,3.8,14.2,8.8c0.3,0.9,0.6,1.9,0.9,2.8
	c1.3,3.2,4.4,4.8,7.4,4.5c0.8-0.1,1.7-0.3,2.5-0.4c2.1-0.3,3.8,1.7,3.3,3.8c-0.3,1.2-1.2,1.9-2.3,2.3c-0.4,0.2-0.8,0.3-1.2,0.3
	C1481.4,425.1,1480.4,425.2,1479.8,425.3z"/>
<path class="st0" d="M1944.6,184.6c1.6-0.1,2.9,0.3,4.3,0.8c0.6,0.2,0.9,0.7,0.8,1.3c-0.3,1.5-0.5,3-0.8,4.6c-1,5.1-2,10.2-3,15.3
	c-0.1,0.6-0.2,1.1-0.2,1.7c-0.2,1.3,0.1,1.8,1.5,2.1c2.3,0.5,4.7,0.9,7,1.4c4.7,0.9,9.4,1.8,14,2.7c0.8,0.1,1.3,0.8,1.2,1.5
	c-0.2,1.2-0.4,2.5-0.7,3.7c-0.1,0.5-0.8,0.9-1.3,0.8c-1-0.1-2-0.2-2.9-0.4c-7.6-1.4-15.2-2.9-22.7-4.3c-0.7-0.1-1.4-0.3-2-0.5
	c-1.3-0.3-1.6-0.7-1.3-2.1c1.6-8.7,3.3-17.4,4.9-26c0.1-0.5,0.3-1.1,0.5-1.6C1944,185,1944.4,184.8,1944.6,184.6z"/>
<path class="st0" d="M1829.6,1034.6c0.7-0.4,1.2-0.8,1.8-1.2c7.7-4.1,15.4-8.2,23-12.3c0.4-0.2,0.7-0.4,1.2-0.5
	c0.4-0.1,0.9,0,1.1,0.4c0.3,0.5,0.6,0.9,0.9,1.4c4.1,7.7,8.2,15.4,12.3,23.1c0.3,0.5,0.4,1,0.7,1.6c-1.3,1.3-2.8,1.9-4.4,2.5
	c-0.3,0.1-0.9-0.1-1.1-0.4c-0.6-0.8-1-1.7-1.5-2.5c-2.7-5.1-5.4-10.2-8.1-15.2c-0.4-0.7-0.8-1.5-1.3-2.1c-0.2-0.3-0.8-0.4-1.1-0.3
	c-0.8,0.2-1.6,0.6-2.3,1c-5,2.6-9.9,5.3-14.9,7.9c-1,0.5-2,1-3,1.5c-0.4,0.2-0.9,0.1-1.1-0.3
	C1830.9,1037.8,1829.9,1036.4,1829.6,1034.6z"/>
<path class="st0" d="M1290.6,425.9c-7.8,0-14.1-6.7-14-14.3c0-6.5,5.2-14.1,14.3-14c8.3,0.1,14.1,6.7,14,14.3
	C1304.8,421.1,1296.9,426.2,1290.6,425.9z M1290.8,402c-5.6-0.1-9.7,4.5-9.8,9.4c-0.1,4.9,3.7,9.9,9.7,10c5.6,0.1,9.8-4.5,9.8-9.9
	C1300.4,406.7,1296.2,401.8,1290.8,402z"/>
<path class="st0" d="M2100,55.1c1-1.3,1.8-2.3,2.6-3.3c0.7-0.9,1.4-1,2.1-0.4c1.3,1,2.7,2.1,4,3.1c3.4,2.7,6.8,5.4,10.2,8.1
	c1.1,0.9,2.2,1.7,3.2,2.5c0.9,0,1.4-0.6,1.8-1.1c3.7-4.6,7.3-9.2,11-13.9c0.7-0.9,1.4-1.8,2.1-2.6c0.5-0.6,1.2-0.6,1.9-0.1
	c0.9,0.7,1.8,1.4,2.6,2.1c0.6,0.5,0.6,1.1,0.1,1.8c-0.2,0.3-0.5,0.7-0.8,1c-5.2,6.6-10.5,13.2-15.7,19.8c-0.4,0.5-0.8,1.2-1.5,1.4
	c-0.3,0-0.6,0-0.8-0.2c-7.1-5.6-14.1-11.1-21.2-16.7C2101.2,56.3,2100.7,55.8,2100,55.1z"/>
<path class="st0" d="M1160.4,364.4c0,7.3-5.8,12.4-11.6,12.6c-0.7,0-1.4,0-2.1,0.1c-3.9,0.4-6.4,3-6.6,6.9c-0.1,1,0,2-0.1,2.9
	c-0.7,7-7.1,11.8-13.4,11.1c-1.2-0.1-2.3-1.3-2.5-2.5c-0.1-1.2,0.7-2.6,1.9-2.9c0.8-0.2,1.6-0.3,2.5-0.4c3.3-0.6,5.4-3,5.6-6.4
	c0.1-0.8,0-1.7,0.1-2.5c0.4-6,4.4-10.5,10.3-11.7c1.4-0.3,2.8-0.3,4.2-0.5c2.3-0.2,3.9-1.4,5-3.4c0.4-0.7,0.6-1.6,0.8-2.4
	c0.2-0.8,0.2-1.7,0.4-2.5c0.3-1.2,1.5-2.1,2.8-2c1.3,0,2.4,1,2.6,2.3C1160.4,363.7,1160.4,364.3,1160.4,364.4z"/>
<path class="st0" d="M1596.2,963.9c0.2-7.6,6.9-13.7,14.5-13.2c7.3,0.4,13.3,6.5,13.1,14.3c-0.2,8-7,13.7-14.3,13.4
	C1602.2,978,1595.7,972,1596.2,963.9z M1619.4,964.4c0-5.1-4-9.4-9.3-9.5c-5.6-0.1-9.7,4.5-9.6,9.6c0,4.9,3.8,9.4,9.4,9.4
	C1615.2,974.1,1619.5,969.7,1619.4,964.4z"/>
<path class="st0" d="M2126.4,545.6c9.4-0.2,19.8,6.7,20.7,19.2c0.5,6.8-2.1,12.6-7.3,17.1c-0.6,0.5-1.3,0.4-1.8-0.2
	c-0.5-0.7-1-1.3-1.5-2c-0.2-0.2-0.3-0.5-0.4-0.8c0-0.3,0-0.6,0.1-0.8c0.4-0.6,0.9-1,1.4-1.6c3.4-3.6,4.6-7.9,3.9-12.8
	c-0.8-5.8-5.5-11-11.2-12.3c-3.6-0.8-7-0.5-10.3,1c-0.6,0.3-1.3,0.6-1.9,0.8c-0.2,0.1-0.6,0-0.8-0.2c-0.7-0.8-1.4-1.7-2.1-2.6
	c-0.5-0.6-0.2-1.3,0.5-1.8C2118.9,546.7,2122.5,545.7,2126.4,545.6z"/>
<path class="st0" d="M2098.8,213.8c-1.9-2.1-3.1-4.7-3.7-7.4c-2.7-12.2,4.8-22.3,14.8-24.7c7.8-1.9,14.7,0.1,20.3,6.1
	c0.3,0.3,0.5,0.7,0.2,1.1c-0.9,1.3-2.1,2.2-3.6,2.7c-1.1-0.9-2-1.7-3-2.4c-8.3-5.7-17.8-2.1-21.6,4.5c-2.6,4.4-2.9,9-1,13.7
	c0.3,0.8,0.8,1.5,1.2,2.2c0.6,1.2,0.5,1.6-0.6,2.5c-0.6,0.5-1.3,1-2,1.5C2099.5,213.8,2099.2,213.7,2098.8,213.8z"/>
<path class="st0" d="M1156.3,1010.7c-6.7,0.3-13.4-5.1-13.5-13.3c0-7.8,6.2-13.4,13.3-13.4c8.5,0,13.5,7.1,13.5,13.3
	C1169.7,1004.3,1163.9,1010.8,1156.3,1010.7z M1156.4,1006.5c5.2,0.1,9-4.4,9.1-9.1c0-4.6-3.6-9.4-9.3-9.3c-5.1,0.1-9,3.9-9.1,9.1
	C1147,1002.3,1151,1006.6,1156.4,1006.5z"/>
<path class="st0" d="M1738,826.5c-1.3,0-2.5,0-3.8,0c-2-0.1-3.5-1.5-3.6-3.4c-0.1-1.9,1.2-3.6,3.1-4c0.5-0.1,1.1-0.1,1.7-0.2
	c8.4-0.5,16.8-1,25.2-1.5c2.4-0.1,4.8-0.2,7.2-0.2c0.7,0,1.4,0.2,1.9,0.7c1.2,1,1.7,2.2,1.4,3.7c-0.2,1.4-1.1,2.3-2.4,2.7
	c-0.7,0.2-1.4,0.3-2.1,0.4c-5.9,0.3-11.8,0.6-17.7,1C1745.3,826,1741.6,826.2,1738,826.5C1738,826.5,1738,826.5,1738,826.5z"/>
<path class="st0" d="M1860,284.5c0,9.6-6,17.3-14.8,19.7c-0.5,0.1-1.1,0.2-1.7,0.1c-0.2,0-0.6-0.2-0.7-0.4c-0.5-1.2-0.8-2.4-0.6-3.7
	c0-0.3,0.2-0.5,0.4-0.7c0.2-0.2,0.5-0.2,0.8-0.3c0.8-0.3,1.6-0.5,2.4-0.8c5-1.9,9.4-7.4,9-14.3c-0.3-6-4.2-11.3-10.1-13.2
	c-1.3-0.4-2.7-0.5-4.1-0.7c-0.6-0.1-1.1-0.1-1.7-0.2c-0.2-0.1-0.5-0.3-0.6-0.5c-0.5-1.2-0.7-2.4-0.4-3.7c0.1-0.2,0.3-0.5,0.5-0.6
	c0.5-0.2,1.1-0.3,1.6-0.3c9.8,0.2,16.9,6.5,19.2,14.3c0.2,0.8,0.4,1.6,0.5,2.5C1859.9,282.8,1859.9,283.9,1860,284.5z"/>
<path class="st0" d="M1668.2,1042.1c1-1.1,2.3-2,3.6-2.7c0.2-0.1,0.6,0,0.7,0.2c0.6,0.6,1.1,1.3,1.6,1.9c3,4.2,6.1,8.5,9.1,12.7
	c0.6,0.8,1.2,1.6,1.8,2.4c0.3,0.4,1.1,0.5,1.5,0.2c0.8-0.5,1.6-1.1,2.4-1.7c3.9-2.8,7.8-5.6,11.7-8.3c1-0.7,2.1-1.4,3.1-2.1
	c1.7,1,2.1,1.5,3.3,4.3c-0.4,0.4-0.7,0.8-1.2,1.1c-5,3.8-18.8,13.5-21.3,15c-0.2-0.1-0.6-0.2-0.7-0.4c-5.2-7.2-10.3-14.4-15.5-21.6
	C1668.2,1042.8,1668.2,1042.5,1668.2,1042.1z"/>
<path class="st0" d="M1741.4,377c-0.8,0-1.4-0.3-1.5-1.1c-0.6-3-1.1-6.1-1.7-9.1c-0.6-3.2-1.1-6.4-1.7-9.5c-0.2-1.3-1-1.6-2.1-1.4
	c-2.5,0.4-5,0.8-7.5,1.3c-3.7,0.6-7.5,1.3-11.2,1.9c-0.7,0.1-1.4-0.3-1.5-1.1c-0.2-1-0.3-1.9-0.5-2.9c-0.1-0.5,0.4-1.1,0.9-1.3
	c0.4-0.1,0.8-0.3,1.2-0.3c7.6-1.3,15.2-2.6,22.8-3.9c0.4-0.1,0.8-0.1,1.2-0.1c0.2,0,0.6,0.2,0.7,0.4c0.3,0.9,0.6,1.9,0.8,2.8
	c1.2,6.6,2.3,13.3,3.5,19.9c0,0.1,0,0.3,0.1,0.4C1745.3,376.3,1745.2,376.7,1741.4,377z"/>
<path class="st0" d="M1889.9,401.2c6.3-0.1,11,4.9,11.2,10.3c0,0.8,0,1.7,0.2,2.5c0.4,1.9,1.3,3.4,3,4.4c1,0.6,2.1,0.8,3.2,0.7
	c1.7,0,3.4,0.2,5,0.8c4.4,1.6,7.4,6.1,7.1,10.9c-0.1,0.9-0.5,1.6-1.3,2.1c-1.2,0.8-3.1,0.2-3.5-1.1c-0.2-0.7-0.3-1.4-0.4-2.1
	c-0.5-3.2-2.8-5.2-6-5.4c-0.6,0-1.1,0-1.7,0c-6-0.4-10.1-4.5-10.7-10.5c-0.1-0.7,0-1.4-0.1-2.1c-0.3-2.6-2.1-4.7-4.7-5.2
	c-0.8-0.2-1.7-0.2-2.5-0.4c-1.8-0.5-2.4-2.7-1.1-4c0.3-0.3,0.7-0.5,1-0.6C1889.2,401.3,1889.7,401.3,1889.9,401.2z"/>
<path class="st0" d="M2109.7,742.2c0.6,0.1,1,0.1,1.4,0.1c8.8,1.1,17.5,2.1,26.3,3.2c0.3,0,0.6,0.1,0.8,0.1c1.7,0.4,2.8,2,2.5,3.8
	c-0.2,1.5-1.7,2.7-3.3,2.7c-0.4,0-0.8,0-1.3-0.1c-8.9-1.1-17.8-2.1-26.7-3.2c-0.7-0.1-1.4-0.2-2-0.5c-1.3-0.5-2.2-2-2-3.3
	c0.2-1.6,1.5-2.8,3.1-2.9C2109.1,742.2,2109.5,742.2,2109.7,742.2z"/>
<path class="st0" d="M1887.5,893.9c0.3,5.7-4.2,10-8.7,10.4c-1,0.1-2,0.2-2.9,0.5c-2.2,0.6-3.6,2.3-3.8,4.5c-0.1,1,0,2-0.1,2.9
	c-0.3,4.6-3.3,8.3-7.7,9.4c-0.9,0.2-1.9,0.2-2.9,0.1c-0.9,0-1.7-1.2-1.7-2.1c0-0.8,0.6-1.8,1.2-2c0.9-0.3,1.9-0.5,2.8-0.8
	c2-0.7,3.2-2.2,3.5-4.3c0.1-1,0-2,0.1-2.9c0.3-5.1,3.8-9,8.8-9.7c0.7-0.1,1.4-0.1,2.1-0.2c2.4-0.5,4-1.9,4.5-4.4
	c0.2-0.8,0.2-1.7,0.4-2.5c0.2-0.9,1.2-1.7,2.2-1.6c1,0,2,0.9,2.1,1.7C1887.4,893.3,1887.5,893.7,1887.5,893.9z"/>
<path class="st0" d="M1111.9,116.4c0.6,0.6,1.3,1.3,2,2c6.6,5.8,16.6,2.8,19-5.4c0.6-2.2,0.6-4.4-0.1-6.6c-0.2-0.8-0.5-1.6-0.7-2.4
	c-0.1-0.2,0.1-0.6,0.3-0.7c0.4-0.4,0.9-0.7,1.3-1c0.9-0.5,1.7-0.3,2.1,0.5c3.2,6,1.8,13.4-2.7,17.9c-7.5,7.7-18.9,5.6-24-1.4
	c-0.4-0.6-0.3-1.3,0.4-1.8C1110.2,116.9,1110.8,116.4,1111.9,116.4z"/>
<path class="st0" d="M1388.3,66.5c-6.5-0.3-12.1-4.9-13.8-11.1c-2.3-8.1,2.6-16.5,10.2-18.7c0.8-0.2,1.6-0.4,2.4-0.6
	c0.5-0.1,1.1,0.4,1.2,0.9c0.1,0.6,0.2,1.1,0.2,1.7c0,0.6-0.4,1.2-0.9,1.3c-0.9,0.3-1.9,0.5-2.8,0.9c-4.7,1.9-7.3,7-6.9,11.5
	c0.5,4.9,4,8.8,9,9.9c0.7,0.2,1.4,0.2,2,0.5c0.3,0.1,0.7,0.5,0.8,0.9c0.2,0.5,0.2,1.1,0.2,1.7c0,0.6-0.4,1.1-0.9,1.2
	C1388.8,66.5,1388.6,66.5,1388.3,66.5z"/>
<path class="st0" d="M1374.7,289.3c1-0.1,2.2,0.8,2.5,1.9c0.4,1.3-0.2,2.7-1.4,3.1c-0.5,0.2-1,0.4-1.6,0.5
	c-7.1,1.6-14.2,3.3-21.3,4.9c-0.3,0.1-0.5,0.1-0.8,0.1c-1.2,0.1-2.6-0.9-2.8-2.1c-0.2-1.1,0.3-2.4,1.3-2.8c0.5-0.2,1-0.5,1.6-0.6
	c7.2-1.7,14.5-3.3,21.7-5C1374.1,289.3,1374.4,289.3,1374.7,289.3z"/>
<path class="st0" d="M1850.3,87.1c1.3-0.1,2.5,0.9,2.7,1.9c0.2,1.2-0.3,2.4-1.4,2.8c-0.6,0.3-1.3,0.5-2,0.7
	c-5.8,1.4-11.7,2.8-17.5,4.2c-1,0.2-1.9,0.4-2.9,0.6c-1.6,0.2-3-1.3-2.6-2.9c0.1-0.7,0.5-1.3,1.2-1.6c0.6-0.3,1.3-0.6,2-0.7
	c6.1-1.5,12.2-2.9,18.4-4.4C1848.9,87.4,1849.7,87.3,1850.3,87.1z"/>
<path class="st0" d="M2120.3,943c0,1.5-0.8,2.4-1.8,2.6c-1.1,0.2-2.1-0.3-2.5-1.1c-0.3-0.6-0.5-1.3-0.7-2
	c-1.4-5.7-2.8-11.4-4.1-17.2c-0.2-0.7-0.2-1.4-0.2-2.1c0-0.9,1-1.8,1.9-2c0.7-0.1,1.8,0.5,2.1,1.1c0.1,0.2,0.3,0.5,0.4,0.8
	c0.1,0.4,0.3,0.8,0.4,1.2c1.4,5.9,2.8,11.7,4.2,17.6C2120.2,942.4,2120.3,943,2120.3,943z"/>
<path class="st0" d="M1742.8,968.3c-0.2-0.1-0.8-0.2-1.2-0.6c-0.4-0.4-0.7-0.9-0.9-1.4c-2.5-5.5-4.9-11-7.3-16.5
	c-0.2-0.5-0.3-1.1-0.4-1.6c-0.2-0.9,0.5-2,1.4-2.3c0.7-0.3,1.9,0.1,2.3,0.7c0.2,0.3,0.5,0.7,0.7,1.1c2.5,5.6,5,11.2,7.5,16.9
	c0.2,0.4,0.3,0.8,0.4,1.2C1745.6,966.9,1744.5,968.3,1742.8,968.3z"/>
<path class="st0" d="M1446.1,710.1c0.1,1-0.5,2-1.3,2.3c-0.7,0.3-1.4,0.3-2-0.2c-0.5-0.3-0.9-0.7-1.2-1.1
	c-3.9-4.4-7.8-8.8-11.7-13.2c-0.3-0.3-0.5-0.7-0.8-1c-0.8-1.1-0.5-2.4,0.7-3.2c0.6-0.4,1.5-0.4,2-0.1c0.2,0.2,0.5,0.3,0.7,0.5
	c4.4,4.9,8.7,9.8,13.1,14.8C1445.9,709.3,1446,709.9,1446.1,710.1z"/>
<path class="st0" d="M1896.9,611.3c-0.3,0-0.7-0.1-1.1-0.3c-0.6-0.4-1.1-0.8-1.6-1.3c-3.8-3.5-7.7-7-11.5-10.5c-0.5-0.5-1-1-1.4-1.6
	c-0.5-0.6-0.4-1.6,0.2-2.3c0.5-0.6,1.6-0.9,2.3-0.6c0.5,0.3,1,0.6,1.4,0.9c4.1,3.8,8.3,7.6,12.4,11.4c0.4,0.4,0.7,0.8,1.1,1.3
	c0.4,0.5,0.4,1.4,0,2C1898.4,610.9,1897.8,611.3,1896.9,611.3z"/>
<path class="st0" d="M1518.9,869.3c0.1,1.2-0.7,2.2-1.4,2.4c-0.7,0.2-1.8-0.3-2.1-1c-0.2-0.5-0.5-1-0.6-1.6
	c-1.4-4.7-2.8-9.4-4.2-14.1c-0.2-0.7-0.3-1.4-0.3-2.1c-0.1-0.8,0.6-1.7,1.4-1.9c0.8-0.2,1.8,0.3,2.1,1c0.2,0.5,0.5,1,0.6,1.5
	c1.4,4.7,2.8,9.4,4.2,14.1C1518.8,868.4,1518.9,869.1,1518.9,869.3z"/>
<g>
	<path class="st1" d="M680.4,463.8c19,0,28.8,8.7,28.8,21.6c0,9.7-6.3,18.4-21.3,21.3c18.4,2.1,25.9,11.3,25.9,22.8
		c0,12.8-9.9,24.3-33.7,24.3h-35.7v-4l13.3-1.2c0.1-12,0.1-24.2,0.1-36.5v-6.9c0-12.2,0-24.3-0.1-36.3l-13.3-1.2v-3.8H680.4z
		 M667,468.3c-0.1,11.8-0.1,23.8-0.1,36.5h8.2c17,0,25.3-6.7,25.3-19.1c0-11.5-6.9-17.4-22.9-17.4H667z M678.3,549.2
		c17,0,26-7.1,26-19.8c0-13-8.6-20.1-28.4-20.1h-9.1c0,15.1,0,27.8,0.1,39.9H678.3z"/>
	<path class="st1" d="M803.5,549.8v4h-35.1v-4l13.9-1.2l-8.6-25.8h-32.1l-8.3,25.7l12.8,1.4v4h-28.9v-4l10.9-1.2l28.6-85.7h6
		l29.1,85.8L803.5,549.8z M772.3,518.5l-14.8-44.3l-14.4,44.3H772.3z"/>
	<path class="st1" d="M879.3,529.6l-0.5,19.3c-8.6,5-17,6.7-26.5,6.7c-26.8,0-44.8-19.1-44.8-46.9c0-27.5,19-47.1,44.8-47.1
		c8.8,0,17,1.7,25.5,6.7l0.4,19.3h-6l-2.9-16.9c-5.2-3-10.3-4.2-16-4.2c-20.5,0-35.5,15.5-35.5,42.2c0,26.8,14.4,42,34.8,42
		c6.1,0,11.9-1.1,17.7-4.1l2.9-17.1H879.3z"/>
	<path class="st1" d="M975,549.8v4h-33v-4l12.2-1.2L930,505.3l-15.4,18.6c0,6.8,0.1,15.4,0.4,24.7l13.4,1.2v4h-36v-4l13.3-1.2
		c0.1-11.9,0.1-24.2,0.1-36.3v-6.9c0-12.3,0-24.4-0.1-36.5l-13.3-1.2v-3.8h36v3.8l-13.4,1.2c-0.4,11.9-0.4,24.1-0.4,36.5v11.9
		l39.3-48l-12.4-1.6v-3.8H972v3.8l-11.8,1.5l-24.8,29.6l28.3,49.8L975,549.8z"/>
	<path class="st1" d="M1061.4,515.1l-8.9,0.7c-0.1,7.9-0.2,16.2-0.2,25.7v6.1c-9.5,5.5-18,8.1-28.9,8.1c-26.7,0-44.6-19.5-44.6-46.9
		c0-27.5,18.6-47.1,45.1-47.1c11.2,0,19.1,2.5,26.9,7.2l0.4,19.2h-6.1l-2.7-16.7c-5.3-3.2-10.8-4.7-17.7-4.7
		c-21,0-35.5,15.9-35.5,42.2c0,25.9,13.8,41.9,35.6,41.9c6.8,0,12.5-1.2,18.5-4.1v-5.1c0-8.6-0.1-17.1-0.2-25.4l-14.9-1V511h33.4
		V515.1z"/>
	<path class="st1" d="M1147.1,549.8v4c-2.1,0.5-5.3,1.1-9.3,1.1c-7.7,0-10.7-2.1-12.2-7.3l-6.6-22.3c-2.9-10.5-6.8-13.4-18.4-13.4
		h-9.2c0,12.9,0,24.9,0.1,36.7l13.3,1.2v4h-36v-4l13.3-1.2c0.1-11.9,0.1-24.2,0.1-36.3v-6.9c0-12.3,0-24.4-0.1-36.5l-13.3-1.2v-3.8
		h36.5c19.8,0,31.2,8.4,31.2,23.6c0,11.3-8.2,20.7-22.8,23.1c7.7,1.7,11.4,6.2,14.4,15.5l7.4,23.1L1147.1,549.8z M1104.8,507.4
		c14.1,0,22.4-8.6,22.4-20.2c0-11.8-6.8-19-22.2-19h-13.4c-0.1,12-0.1,24.2-0.1,39.2H1104.8z"/>
	<path class="st1" d="M1234.6,508.8c0,28.9-18.7,46.9-40.2,46.9c-21.3,0-40.2-17.1-40.2-46.9c0-29.1,19-47.1,40.2-47.1
		S1234.6,479,1234.6,508.8z M1194.5,550.8c19.8,0,29.8-20.1,29.8-42s-9.9-42.2-29.8-42.2c-19.7,0-29.8,20.2-29.8,42.2
		S1174.8,550.8,1194.5,550.8z"/>
	<path class="st1" d="M1332.4,467.6l-11.9,1.5l-0.1,49.5c0,25.7-11.8,37.1-31.1,37.1c-19.2,0-31.6-10.4-31.6-35.6v-14.5
		c0-12.3,0-24.7-0.2-36.8l-11.8-1.1v-3.8h35.3v3.8l-14,1.4c-0.2,11.9-0.2,24.2-0.2,36.6v11.9c0,23.3,9.3,31.4,23.8,31.4
		c17,0,24.9-9.3,24.9-33.6v-46l-15-1.6v-3.8h32V467.6z"/>
	<path class="st1" d="M1429.4,467.6l-11.7,1.5l-0.1,85.7h-3.8l-55.3-78l0.2,71.5l14.5,1.5v4h-31.4v-4l11.7-1.4l0.2-78.4l-1-1.4
		l-10.9-1.1v-3.8h18.6l52.2,74.1l-0.1-68.8l-14.5-1.5v-3.8h31.4V467.6z"/>
	<path class="st1" d="M1478.1,463.8c26.7,0,43.6,15.9,43.6,45c0,28.3-18.1,45-45.8,45h-35.3v-4l13.3-1.2c0.1-11.9,0.1-24.4,0.1-38.9
		v-3.8c0-12.6,0-24.9-0.1-36.9l-13.3-1.2v-3.8H1478.1z M1474.8,549.2c24.2,0,36.6-15.3,36.6-40.3c0-26.5-12.5-40.7-35-40.7h-13
		c-0.2,12.2-0.2,24.6-0.2,37.6v3.8c0,14.5,0,27.3,0.2,39.6H1474.8z"/>
</g>
</svg>
